<?xml version="1.0" encoding="utf-8"?>
<!-- Generator: Adobe Illustrator 24.2.1, SVG Export Plug-In . SVG Version: 6.00 Build 0)  -->
<svg version="1.1" id="Layer_1" xmlns="http://www.w3.org/2000/svg" xmlns:xlink="http://www.w3.org/1999/xlink" x="0px" y="0px"
	 viewBox="0 0 24 24" style="enable-background:new 0 0 24 24;" xml:space="preserve">
<style type="text/css">
	.st0{fill:none;}
	.st1{fill:#07306D;}
</style>
<path class="st0" d="M0,0h24v24H0V0z"/>
<g>
	<path class="st1" d="M3.6,19H8c0.3,0,0.6-0.3,0.8-0.8l1.9-5.6c0.1-0.4,0.1-0.8,0-1.2L8.8,5.8C8.7,5.3,8.4,5,8,5H3.6
		C3.2,5,3,5.9,3.2,6.6L5.1,12l-1.9,5.4C3,18.1,3.2,19,3.6,19z"/>
	<path class="st1" d="M13.6,19H18c0.3,0,0.6-0.3,0.8-0.8l1.9-5.6c0.1-0.4,0.1-0.8,0-1.2l-1.9-5.6C18.7,5.3,18.4,5,18,5h-4.4
		c-0.4,0-0.6,0.9-0.4,1.6l1.9,5.4l-1.9,5.4C13,18.1,13.2,19,13.6,19z"/>
</g>
</svg>
