<?xml version="1.0" encoding="utf-8"?>
<!-- Generator: Adobe Illustrator 24.3.0, SVG Export Plug-In . SVG Version: 6.00 Build 0)  -->
<svg version="1.1" id="Layer_1" xmlns="http://www.w3.org/2000/svg" xmlns:xlink="http://www.w3.org/1999/xlink" x="0px" y="0px"
	 viewBox="0 0 24 24" style="enable-background:new 0 0 24 24;" xml:space="preserve">
<style type="text/css">
	.st0{fill:none;}
	.st1{fill:#EA6F00;}
</style>
<path class="st0" d="M0,0h24v24H0V0z"/>
<path class="st1" d="M2,5C1.5,5,1,5.4,1,6v15c0,1.1,0.9,2,2,2h15c0.5,0,1-0.5,1-1s-0.5-1-1-1H4c-0.5,0-1-0.5-1-1V6C3,5.4,2.5,5,2,5z
	 M21,1H7C5.9,1,5,1.9,5,3v14c0,1.1,0.9,2,2,2h14c1.1,0,2-0.9,2-2V3C23,1.9,22.1,1,21,1z M20,17H8c-0.6,0-1-0.5-1-1V4
	c0-0.5,0.4-1,1-1h12c0.5,0,1,0.5,1,1v12C21,16.5,20.5,17,20,17z M16,13h-3v-2h2c1.1,0,2-0.9,2-2V7c0-1.1-0.9-2-2-2h-3
	c-0.6,0-1,0.4-1,1s0.4,1,1,1h3v2h-2c-1.1,0-2,0.9-2,2v3c0,0.6,0.4,1,1,1h4c0.5,0,1-0.4,1-1S16.5,13,16,13z"/>
</svg>
