<?xml version="1.0" encoding="utf-8"?>
<!-- Generator: Adobe Illustrator 24.3.0, SVG Export Plug-In . SVG Version: 6.00 Build 0)  -->
<svg version="1.1" id="Layer_1" xmlns="http://www.w3.org/2000/svg" xmlns:xlink="http://www.w3.org/1999/xlink" x="0px" y="0px"
	 viewBox="0 0 24 24" style="enable-background:new 0 0 24 24;" xml:space="preserve">
<style type="text/css">
	.st0{fill:none;}
	.st1{fill:#EA6F00;}
</style>
<path class="st0" d="M0,0h24v24H0V0z"/>
<g>
	<path class="st1" d="M20.2,2H7.8C6.8,2,6,2.8,6,3.8v12.4c0,1,0.8,1.8,1.8,1.8h12.4c1,0,1.8-0.8,1.8-1.8V3.8C22,2.8,21.2,2,20.2,2z
		 M19.3,16.2H8.7c-0.5,0-0.9-0.4-0.9-0.9V4.7c0-0.4,0.4-0.9,0.9-0.9h10.7c0.4,0,0.9,0.4,0.9,0.9v10.7C20.2,15.8,19.8,16.2,19.3,16.2
		z"/>
	<path class="st1" d="M3,6C2.5,6,2,6.4,2,7v13c0,1.1,0.9,2,2,2h13c0.5,0,1-0.5,1-1s-0.5-1-1-1H5c-0.6,0-1-0.5-1-1V7C4,6.4,3.5,6,3,6
		z"/>
	<path class="st1" d="M15.8,12.7h-2.7v-1.8h1.8c1,0,1.8-0.8,1.8-1.8V7.3c0-1-0.8-1.8-1.8-1.8h-2.7c-0.5,0-0.9,0.4-0.9,0.9
		s0.4,0.9,0.9,0.9h2.7v1.8h-1.8c-1,0-1.8,0.8-1.8,1.8v2.7c0,0.5,0.4,0.9,0.9,0.9h3.6c0.4,0,0.9-0.4,0.9-0.9S16.2,12.7,15.8,12.7z"/>
</g>
</svg>
