<?xml version="1.0" encoding="utf-8"?>
<!-- Generator: Adobe Illustrator 24.2.1, SVG Export Plug-In . SVG Version: 6.00 Build 0)  -->
<svg version="1.1" id="Layer_1" xmlns="http://www.w3.org/2000/svg" xmlns:xlink="http://www.w3.org/1999/xlink" x="0px" y="0px"
	 viewBox="0 0 24 24" style="enable-background:new 0 0 24 24;" xml:space="preserve">
<style type="text/css">
	.st0{fill:none;}
	.st1{fill:#07306D;}
</style>
<path class="st0" d="M0,0h24v24H0V0z"/>
<path class="st1" d="M11.1,3.4L7.4,9.5C7,10.1,7.5,11,8.3,11h7.4c0.8,0,1.3-0.9,0.9-1.5l-3.7-6.1C12.5,2.8,11.5,2.8,11.1,3.4z"/>
<circle class="st1" cx="17.5" cy="17.5" r="4.5"/>
<path class="st1" d="M4,21.5h6c0.6,0,1-0.5,1-1v-6c0-0.6-0.4-1-1-1H4c-0.5,0-1,0.4-1,1v6C3,21,3.5,21.5,4,21.5z"/>
</svg>
