<?xml version="1.0" encoding="utf-8"?>
<!-- Generator: Adobe Illustrator 24.3.0, SVG Export Plug-In . SVG Version: 6.00 Build 0)  -->
<svg version="1.1" id="Layer_1" xmlns="http://www.w3.org/2000/svg" xmlns:xlink="http://www.w3.org/1999/xlink" x="0px" y="0px"
	 viewBox="0 0 24 24" style="enable-background:new 0 0 24 24;" xml:space="preserve">
<style type="text/css">
	.st0{fill:#EA6F00;}
</style>
<path class="st0" d="M3,6C2.5,6,2,6.4,2,7v13c0,1.1,0.9,2,2,2h13c0.5,0,1-0.5,1-1s-0.5-1-1-1H5c-0.6,0-1-0.5-1-1V7C4,6.4,3.5,6,3,6z
	 M20,2H8C6.9,2,6,2.9,6,4v12c0,1.1,0.9,2,2,2h12c1.1,0,2-0.9,2-2V4C22,2.9,21.1,2,20,2z M12,14.5v-9l5.5,4.1c0.3,0.2,0.3,0.6,0,0.8
	L12,14.5z"/>
</svg>
