<?xml version="1.0" encoding="utf-8"?>
<!-- Generator: Adobe Illustrator 24.2.1, SVG Export Plug-In . SVG Version: 6.00 Build 0)  -->
<svg version="1.1" id="Layer_1" xmlns="http://www.w3.org/2000/svg" xmlns:xlink="http://www.w3.org/1999/xlink" x="0px" y="0px"
	 viewBox="0 0 24 24" style="enable-background:new 0 0 24 24;" xml:space="preserve">
<style type="text/css">
	.st0{fill:none;}
	.st1{fill:#EA6F00;}
</style>
<path class="st0" d="M0,0h24v24H0V0z"/>
<path class="st1" d="M16,13h-3c-0.6,0-1,0.4-1,1v3c0,0.5,0.4,1,1,1h3c0.5,0,1-0.5,1-1v-3C17,13.4,16.5,13,16,13z M16,3v1H8V3
	c0-0.5-0.4-1-1-1S6,2.5,6,3v1H5C3.9,4,3,4.9,3,6l0,14c0,1.1,0.9,2,2,2h14c1.1,0,2-0.9,2-2V6c0-1.1-0.9-2-2-2h-1V3c0-0.5-0.5-1-1-1
	S16,2.5,16,3z M18,20H6c-0.6,0-1-0.5-1-1V9h14v10C19,19.5,18.5,20,18,20z"/>
</svg>
