<?xml version="1.0" encoding="utf-8"?>
<!-- Generator: Adobe Illustrator 24.2.1, SVG Export Plug-In . SVG Version: 6.00 Build 0)  -->
<svg version="1.1" id="Layer_1" xmlns="http://www.w3.org/2000/svg" xmlns:xlink="http://www.w3.org/1999/xlink" x="0px" y="0px"
	 viewBox="0 0 24 24" style="enable-background:new 0 0 24 24;" xml:space="preserve">
<style type="text/css">
	.st0{fill:none;}
	.st1{fill:#EA6F00;}
</style>
<path class="st0" d="M0,0h24v24H0V0z"/>
<g>
	<g>
		<path class="st1" d="M6.4,1.5l15.3,4.1c0.9,0.3,1.5,1.2,1.2,2.2l-0.5,1.7c-0.1,0.5-0.6,0.7-1.1,0.6S20.6,9.5,20.8,9L21,8.2
			c0.1-0.5-0.2-1-0.6-1.1L6.8,3.5c-0.5-0.1-1,0.2-1.1,0.6L3,14.3c-0.1,0.5,0.2,1,0.6,1.1l4.2,1.1c0.5,0.1,0.7,0.6,0.6,1.1
			c-0.1,0.5-0.6,0.7-1.1,0.6l-5.1-1.4c-0.9-0.3-1.5-1.2-1.2-2.2L4.3,2.8C4.5,1.8,5.5,1.3,6.4,1.5z"/>
	</g>
	<path class="st1" d="M19.3,11.1h-8.2c-0.9,0-1.6,0.7-1.6,1.6v8.2c0,0.9,0.7,1.6,1.6,1.6h8.2c0.9,0,1.6-0.7,1.6-1.6v-8.2
		C20.9,11.8,20.2,11.1,19.3,11.1z M18.5,20.9h-6.5c-0.4,0-0.8-0.4-0.8-0.8v-6.5c0-0.4,0.4-0.8,0.8-0.8h6.5c0.4,0,0.8,0.4,0.8,0.8
		v6.5C19.3,20.5,18.9,20.9,18.5,20.9z"/>
</g>
</svg>
