<?xml version="1.0" encoding="utf-8"?>
<!-- Generator: Adobe Illustrator 23.0.3, SVG Export Plug-In . SVG Version: 6.00 Build 0)  -->
<svg version="1.1" id="Layer_1" xmlns="http://www.w3.org/2000/svg" xmlns:xlink="http://www.w3.org/1999/xlink" x="0px" y="0px"
	 viewBox="0 0 24 24" style="enable-background:new 0 0 24 24;" xml:space="preserve">
<style type="text/css">
	.st0{fill:none;}
	.st1{fill:#F5AF3C;}
</style>
<path class="st0" d="M0,0h24v24H0V0z"/>
<path class="st1" d="M17,20H5c-0.6,0-1-0.5-1-1V7c0-0.6-0.5-1-1-1S2,6.4,2,7v13c0,1.1,0.9,2,2,2h13c0.5,0,1-0.5,1-1S17.5,20,17,20z
	 M20,2H8C6.9,2,6,2.9,6,4v12c0,1.1,0.9,2,2,2h12c1.1,0,2-0.9,2-2V4C22,2.9,21.1,2,20,2z M20,12l-2.5-1.5L15,12V4h5V12z"/>
</svg>
