<?xml version="1.0" encoding="utf-8"?>
<!-- Generator: Adobe Illustrator 23.0.3, SVG Export Plug-In . SVG Version: 6.00 Build 0)  -->
<svg version="1.1" id="Layer_1" xmlns="http://www.w3.org/2000/svg" xmlns:xlink="http://www.w3.org/1999/xlink" x="0px" y="0px"
	 viewBox="0 0 24 24" style="enable-background:new 0 0 24 24;" xml:space="preserve">
<style type="text/css">
	.st0{fill:none;}
	.st1{fill:#50BC96;}
</style>
<path class="st0" d="M0,0h24v24H0C0,24,0,0,0,0z"/>
<path class="st1" d="M12,4V2.2c0-0.5-0.5-0.7-0.9-0.4L8.3,4.7c-0.2,0.2-0.2,0.5,0,0.7l2.8,2.8C11.5,8.5,12,8.2,12,7.8V6
	c3.3,0,6,2.7,6,6c0,0.8-0.1,1.6-0.4,2.2c-0.1,0.4,0,0.8,0.2,1c0.5,0.5,1.4,0.3,1.6-0.3C19.8,14,20,13,20,12C20,7.6,16.4,4,12,4z
	 M12,18c-3.3,0-6-2.7-6-6c0-0.8,0.2-1.6,0.4-2.2c0.2-0.4,0-0.8-0.2-1C5.7,8.2,4.8,8.4,4.6,9.1C4.2,10,4,11,4,12c0,4.4,3.6,8,8,8v1.8
	c0,0.5,0.5,0.7,0.9,0.4l2.8-2.8c0.2-0.2,0.2-0.5,0-0.7l-2.8-2.8c-0.3-0.3-0.9-0.1-0.9,0.4V18z"/>
</svg>
