<?xml version="1.0" encoding="utf-8"?>
<!-- Generator: Adobe Illustrator 23.0.3, SVG Export Plug-In . SVG Version: 6.00 Build 0)  -->
<svg version="1.1" id="Layer_1" xmlns="http://www.w3.org/2000/svg" xmlns:xlink="http://www.w3.org/1999/xlink" x="0px" y="0px"
	 viewBox="0 0 24 24" style="enable-background:new 0 0 24 24;" xml:space="preserve">
<style type="text/css">
	.st0{fill:none;}
	.st1{fill:#F5AF3C;}
</style>
<path class="st0" d="M0,0h24v24H0V0z"/>
<path class="st1" d="M20,6h-8l-1.4-1.4C10.2,4.2,9.7,4,9.2,4H4C2.9,4,2,4.9,2,6l0,12c0,1.1,0.9,2,2,2h16c1.1,0,2-0.9,2-2V8
	C22,6.9,21.1,6,20,6z M19,18H5c-0.6,0-1-0.5-1-1V9c0-0.6,0.4-1,1-1h14c0.5,0,1,0.4,1,1v8C20,17.5,19.5,18,19,18z"/>
</svg>
