<?xml version="1.0" encoding="utf-8"?>
<!-- Generator: Adobe Illustrator 24.2.1, SVG Export Plug-In . SVG Version: 6.00 Build 0)  -->
<svg version="1.1" id="Layer_1" xmlns="http://www.w3.org/2000/svg" xmlns:xlink="http://www.w3.org/1999/xlink" x="0px" y="0px"
	 viewBox="0 0 24 24" style="enable-background:new 0 0 24 24;" xml:space="preserve">
<style type="text/css">
	.st0{fill:none;}
	.st1{fill:#EA6F00;}
</style>
<path class="st0" d="M0,0h24v24H0V0z"/>
<path class="st1" d="M4,19.5c0,0.6,0.5,1.1,1.1,1.1h13.8c0.6,0,1.1-0.6,1.1-1.1s-0.6-1.1-1.1-1.1H5.1C4.4,18.3,4,18.9,4,19.5z
	 M9.1,13.5h5.7l0.8,1.8c0.1,0.5,0.6,0.7,1,0.7c0.8,0,1.3-0.8,1-1.5L13.3,4.2c-0.2-0.5-0.7-0.8-1.1-0.8s-1,0.3-1.3,0.8L6.4,14.5
	C6,15.2,6.6,16,7.4,16c0.5,0,0.8-0.2,1-0.7C8.3,15.3,9.1,13.5,9.1,13.5z M12,5.7l2.2,5.7H9.9L12,5.7z"/>
</svg>
