<?xml version="1.0" encoding="utf-8"?>
<!-- Generator: Adobe Illustrator 23.0.3, SVG Export Plug-In . SVG Version: 6.00 Build 0)  -->
<svg version="1.1" id="Layer_1" xmlns="http://www.w3.org/2000/svg" xmlns:xlink="http://www.w3.org/1999/xlink" x="0px" y="0px"
	 viewBox="0 0 24 24" style="enable-background:new 0 0 24 24;" xml:space="preserve">
<style type="text/css">
	.st0{fill:none;}
	.st1{fill:#50BC96;}
</style>
<path class="st0" d="M0,0h24v24H0V0z"/>
<path class="st1" d="M20.4,4.6H3.6c-1,0-1.8,0.8-1.8,1.8v12.1c0,1,0.8,1.8,1.8,1.8h16.8c1,0,1.8-0.8,1.8-1.8V6.5
	C22.3,5.4,21.4,4.6,20.4,4.6z M20.4,17.6c0,0.5-0.4,0.9-0.9,0.9H12V6.5h7.5c0.5,0,0.9,0.4,0.9,0.9C20.4,7.4,20.4,17.6,20.4,17.6z
	 M18.8,9.5h-5.1c-0.4,0-0.7,0.3-0.7,0.7s0.3,0.7,0.7,0.7h5.1c0.4,0,0.7-0.3,0.7-0.7C19.5,9.8,19.2,9.5,18.8,9.5z M18.8,12h-5.1
	c-0.4,0-0.7,0.3-0.7,0.7s0.3,0.7,0.7,0.7h5.1c0.4,0,0.7-0.3,0.7-0.7C19.5,12.4,19.2,12,18.8,12z M18.8,14.6h-5.1
	c-0.4,0-0.7,0.3-0.7,0.7s0.3,0.7,0.7,0.7h5.1c0.4,0,0.7-0.3,0.7-0.7S19.2,14.6,18.8,14.6z"/>
</svg>
