<?xml version="1.0" encoding="utf-8"?>
<!-- Generator: Adobe Illustrator 24.3.0, SVG Export Plug-In . SVG Version: 6.00 Build 0)  -->
<svg version="1.1" id="Layer_1" xmlns="http://www.w3.org/2000/svg" xmlns:xlink="http://www.w3.org/1999/xlink" x="0px" y="0px"
	 viewBox="0 0 24 24" style="enable-background:new 0 0 24 24;" xml:space="preserve">
<style type="text/css">
	.st0{fill:none;}
	.st1{fill:#EA6F00;}
</style>
<path class="st0" d="M0,0h24v24H0V0z"/>
<path class="st1" d="M12,2C6.5,2,2,6.5,2,12s4.5,10,10,10s10-4.5,10-10S17.5,2,12,2z M12,20c-4.4,0-8-3.6-8-8s3.6-8,8-8s8,3.6,8,8
	S16.4,20,12,20z M12,16L12,16c0.6,0,1,0.4,1,1v0c0,0.6-0.4,1-1,1h0c-0.6,0-1-0.4-1-1v0C11,16.4,11.4,16,12,16z M12.6,6
	c-2.1-0.3-3.9,1-4.4,2.8C8,9.4,8.4,10,9.1,10h0.2c0.4,0,0.7-0.3,0.9-0.7c0.3-0.9,1.3-1.5,2.3-1.3c0.9,0.2,1.6,1.1,1.6,2.1
	c-0.1,1.3-1.6,1.6-2.4,2.9c0,0,0,0,0,0c0,0,0,0,0,0.1c-0.1,0.1-0.2,0.3-0.2,0.5c0,0,0,0.1,0,0.1c0,0,0,0,0,0.1
	C11.1,14.1,11,14.5,11,15h2c0-0.4,0.1-0.8,0.3-1.1c0,0,0-0.1,0.1-0.1c0.1-0.1,0.2-0.3,0.3-0.4c0,0,0,0,0,0c0.1-0.1,0.2-0.2,0.3-0.3
	c1-0.9,2.3-1.6,2-3.6C15.7,7.8,14.3,6.3,12.6,6z"/>
</svg>
