<?xml version="1.0" encoding="utf-8"?>
<!-- Generator: Adobe Illustrator 24.3.0, SVG Export Plug-In . SVG Version: 6.00 Build 0)  -->
<svg version="1.1" id="Layer_1" xmlns="http://www.w3.org/2000/svg" xmlns:xlink="http://www.w3.org/1999/xlink" x="0px" y="0px"
	 viewBox="0 0 24 24" style="enable-background:new 0 0 24 24;" xml:space="preserve">
<style type="text/css">
	.st0{fill:none;}
	.st1{fill:#EA6F00;}
</style>
<path class="st0" d="M0,0h24v24H0V0z"/>
<path class="st1" d="M19,3H5C3.9,3,3,3.9,3,5v14c0,1.1,0.9,2,2,2h14c1.1,0,2-0.9,2-2V5C21,3.9,20.1,3,19,3z M18,19H6
	c-0.6,0-1-0.5-1-1V6c0-0.6,0.4-1,1-1h12c0.5,0,1,0.4,1,1v12C19,18.5,18.5,19,18,19z M17.6-13.9l-2.4,3l-1.6-1.9
	c-0.2-0.2-0.6-0.2-0.8,0l-1.7,2.2c-0.3,0.3,0,0.8,0.4,0.8h9c0.4,0,0.6-0.5,0.4-0.8l-2.5-3.4C18.2-14.2,17.8-14.2,17.6-13.9z"/>
<g>
	<circle class="st1" cx="9" cy="9" r="2"/>
	<rect x="8.7" y="10.9" transform="matrix(0.7071 0.7071 -0.7071 0.7071 11.6728 -4.9443)" class="st1" width="6.2" height="1.4"/>
	<circle class="st1" cx="15" cy="15" r="2"/>
</g>
</svg>
