<?xml version="1.0" encoding="utf-8"?>
<!-- Generator: Adobe Illustrator 23.0.3, SVG Export Plug-In . SVG Version: 6.00 Build 0)  -->
<svg version="1.1" id="Layer_1" xmlns="http://www.w3.org/2000/svg" xmlns:xlink="http://www.w3.org/1999/xlink" x="0px" y="0px"
	 viewBox="0 0 24 24" style="enable-background:new 0 0 24 24;" xml:space="preserve">
<style type="text/css">
	.st0{fill:none;}
	.st1{fill:#50BC96;}
</style>
<path class="st0" d="M0,0h24v24H0V0z"/>
<path class="st1" d="M21.5,15.8V4.4c0-1-0.9-1.9-1.9-1.9H8.2c-1,0-1.9,0.9-1.9,1.9v11.4c0,1,0.9,1.9,1.9,1.9h11.4
	C20.6,17.7,21.5,16.8,21.5,15.8z M11.4,12.5l1.5,2.1l2.5-3.1c0.2-0.2,0.6-0.2,0.7,0L19,15c0.2,0.3,0,0.8-0.4,0.8H9.1
	c-0.4,0-0.6-0.4-0.4-0.8l1.9-2.5C10.9,12.3,11.2,12.3,11.4,12.5z M2.5,7.2v12.4c0,1,0.9,1.9,1.9,1.9h12.4c0.5,0,1-0.4,1-1
	s-0.4-0.9-1-0.9H5.3c-0.5,0-0.9-0.4-0.9-1V7.2c0-0.5-0.4-0.9-1-0.9S2.5,6.7,2.5,7.2z"/>
</svg>
