<?xml version="1.0" encoding="utf-8"?>
<!-- Generator: Adobe Illustrator 23.0.3, SVG Export Plug-In . SVG Version: 6.00 Build 0)  -->
<svg version="1.1" id="Layer_1" xmlns="http://www.w3.org/2000/svg" xmlns:xlink="http://www.w3.org/1999/xlink" x="0px" y="0px"
	 viewBox="0 0 24 24" style="enable-background:new 0 0 24 24;" xml:space="preserve">
<style type="text/css">
	.st0{fill:none;}
	.st1{fill:#50BC96;}
</style>
<g>
	<path class="st0" d="M0,0h24v24H0V0z"/>
	<path class="st0" d="M0,0h24v24H0V0z"/>
</g>
<path class="st1" d="M21,3H3C1.9,3,1,3.9,1,5v3c0,0.6,0.5,1,1,1s1-0.4,1-1V6c0-0.6,0.5-1,1-1h16c0.5,0,1,0.4,1,1v12c0,0.5-0.5,1-1,1
	H4c-0.5,0-1-0.5-1-1v-2c0-0.6-0.5-1-1-1s-1,0.4-1,1v3c0,1.1,0.9,2,2,2h18c1.1,0,2-0.9,2-2V5C23,3.9,22.1,3,21,3z M11.9,15.2l2.8-2.8
	c0.2-0.2,0.2-0.5,0-0.7l-2.8-2.8C11.5,8.5,11,8.8,11,9.2V11H2c-0.5,0-1,0.4-1,1s0.5,1,1,1h9v1.8C11,15.2,11.5,15.5,11.9,15.2z"/>
</svg>
