<?xml version="1.0" encoding="utf-8"?>
<!-- Generator: Adobe Illustrator 23.0.3, SVG Export Plug-In . SVG Version: 6.00 Build 0)  -->
<svg version="1.1" id="Layer_1" xmlns="http://www.w3.org/2000/svg" xmlns:xlink="http://www.w3.org/1999/xlink" x="0px" y="0px"
	 viewBox="0 0 24 24" style="enable-background:new 0 0 24 24;" xml:space="preserve">
<style type="text/css">
	.st0{fill:none;}
	.st1{fill:#F5AF3C;}
</style>
<path class="st0" d="M0,0h24v24H0V0z"/>
<path class="st1" d="M12,2C6.5,2,2,6.5,2,12s4.5,10,10,10c5.5,0,10-4.5,10-10S17.5,2,12,2z M12,20c-4.4,0-8-3.6-8-8s3.6-8,8-8
	s8,3.6,8,8S16.4,20,12,20z M15.5,11c0.8,0,1.5-0.7,1.5-1.5S16.3,8,15.5,8S14,8.7,14,9.5S14.7,11,15.5,11z M8.5,11
	c0.8,0,1.5-0.7,1.5-1.5S9.3,8,8.5,8S7,8.7,7,9.5S7.7,11,8.5,11z M12,17.5c2,0,3.8-1.1,4.8-2.8c0.2-0.3,0-0.8-0.4-0.8H7.7
	c-0.4,0-0.6,0.4-0.4,0.8C8.2,16.4,10,17.5,12,17.5z"/>
</svg>
