<?xml version="1.0" encoding="utf-8"?>
<!-- Generator: Adobe Illustrator 24.2.1, SVG Export Plug-In . SVG Version: 6.00 Build 0)  -->
<svg version="1.1" id="Layer_1" xmlns="http://www.w3.org/2000/svg" xmlns:xlink="http://www.w3.org/1999/xlink" x="0px" y="0px"
	 viewBox="0 0 24 24" style="enable-background:new 0 0 24 24;" xml:space="preserve">
<style type="text/css">
	.st0{fill:none;}
	.st1{fill:#EA6F00;}
</style>
<path class="st0" d="M0,0h24v24H0V0z"/>
<path class="st1" d="M16.1,13c0,1-0.1,1.9-0.3,2.6c-0.2,0.7-0.5,1.3-0.8,1.7c-0.4,0.4-0.8,0.8-1.3,1s-1.1,0.3-1.7,0.3
	c-0.6,0-1.2-0.1-1.7-0.3c-0.5-0.2-1-0.5-1.3-1c-0.4-0.4-0.6-1-0.9-1.7C8,14.9,7.9,14,7.9,13v-2c0-1,0.1-1.9,0.3-2.6
	C8.4,7.7,8.6,7.1,9,6.7C9.4,6.3,9.8,6,10.3,5.8c0.5-0.2,1.1-0.3,1.7-0.3c0.6,0,1.2,0.1,1.7,0.3c0.5,0.2,1,0.5,1.3,0.9
	c0.4,0.4,0.6,1,0.8,1.7s0.3,1.5,0.3,2.6L16.1,13L16.1,13z M14,10.6c0-0.6,0-1.2-0.1-1.6c-0.1-0.4-0.2-0.8-0.4-1.1
	c-0.2-0.3-0.4-0.5-0.6-0.6c-0.2-0.1-0.5-0.2-0.9-0.2s-0.6,0.1-0.9,0.2S10.7,7.7,10.5,8S10.2,8.6,10.1,9C10,9.4,10,10,10,10.6v2.7
	c0,0.6,0.1,1.2,0.1,1.6c0.1,0.4,0.2,0.8,0.4,1.1c0.2,0.3,0.4,0.5,0.6,0.6s0.5,0.2,0.9,0.2s0.6-0.1,0.9-0.2s0.5-0.3,0.6-0.6
	c0.2-0.3,0.3-0.6,0.4-1.1s0.1-1,0.1-1.6L14,10.6C14,10.6,14,10.6,14,10.6z"/>
</svg>
