<?xml version="1.0" encoding="utf-8"?>
<!-- Generator: Adobe Illustrator 24.2.1, SVG Export Plug-In . SVG Version: 6.00 Build 0)  -->
<svg version="1.1" id="Layer_1" xmlns="http://www.w3.org/2000/svg" xmlns:xlink="http://www.w3.org/1999/xlink" x="0px" y="0px"
	 viewBox="0 0 24 24" style="enable-background:new 0 0 24 24;" xml:space="preserve">
<style type="text/css">
	.st0{fill:none;}
	.st1{fill:#07306D;}
</style>
<path class="st0" d="M0,0h24v24H0V0z"/>
<g>
	<path class="st1" d="M16.1,14h-11c-0.6,0-1,0.4-1,1s0.4,1,1,1h11v1.8c0,0.4,0.5,0.7,0.9,0.4l2.8-2.8c0.2-0.2,0.2-0.5,0-0.7L17,11.9
		c-0.3-0.3-0.9-0.1-0.9,0.4V14z"/>
	<path class="st1" d="M8,7.9v11c0,0.6,0.4,1,1,1s1-0.4,1-1v-11h1.8c0.4,0,0.7-0.5,0.4-0.9L9.4,4.3c-0.2-0.2-0.5-0.2-0.7,0L5.9,7
		C5.5,7.3,5.8,7.9,6.2,7.9H8z"/>
</g>
</svg>
