<?xml version="1.0" encoding="utf-8"?>
<!-- Generator: Adobe Illustrator 24.2.1, SVG Export Plug-In . SVG Version: 6.00 Build 0)  -->
<svg version="1.1" id="Layer_1" xmlns="http://www.w3.org/2000/svg" xmlns:xlink="http://www.w3.org/1999/xlink" x="0px" y="0px"
	 viewBox="0 0 24 24" style="enable-background:new 0 0 24 24;" xml:space="preserve">
<style type="text/css">
	.st0{fill:#07306D;}
</style>
<path class="st0" d="M17,16l-4-4V8.8c1.4-0.5,2.3-1.9,1.9-3.5c-0.2-1.2-1.2-2.1-2.4-2.3C10.6,2.7,9,4.2,9,6c0,1.3,0.8,2.4,2,2.8V12
	l-4,4H4c-0.5,0-1,0.5-1,1v3c0,0.5,0.5,1,1,1h3c0.6,0,1-0.5,1-1v-2l4-4.2l4,4.2v2c0,0.5,0.5,1,1,1h3c0.5,0,1-0.5,1-1v-3
	c0-0.5-0.5-1-1-1H17z"/>
</svg>
