<?xml version="1.0" encoding="utf-8"?>
<!-- Generator: Adobe Illustrator 23.0.3, SVG Export Plug-In . SVG Version: 6.00 Build 0)  -->
<svg version="1.1" id="Layer_1" xmlns="http://www.w3.org/2000/svg" xmlns:xlink="http://www.w3.org/1999/xlink" x="0px" y="0px"
	 viewBox="0 0 24 24" style="enable-background:new 0 0 24 24;" xml:space="preserve">
<style type="text/css">
	.st0{fill:none;}
	.st1{fill:none;stroke:#50BC96;stroke-width:1.5;stroke-linecap:round;stroke-linejoin:round;stroke-miterlimit:10;}
</style>
<path class="st0" d="M0,0h24v24H0V0z"/>
<path class="st1" d="M14.3,3.5C14,3.2,13.5,3,13.1,3H6.6c-1,0-1.8,0.8-1.8,1.8v14.4c0,1,0.8,1.8,1.8,1.8h10.8c1,0,1.8-0.8,1.8-1.8
	V9.1c0-0.4-0.2-0.9-0.5-1.3L14.3,3.5z M14,7.3v-4c0,0,0.1-0.1,0.1,0l4.8,4.8v0.1h-4C14.3,8.2,14,7.8,14,7.3z M7.3,14.6h9.3
	 M7.3,17.8h9.3 M7.3,11.5h9.3"/>
</svg>
