<?xml version="1.0" encoding="utf-8"?>
<!-- Generator: Adobe Illustrator 24.2.1, SVG Export Plug-In . SVG Version: 6.00 Build 0)  -->
<svg version="1.1" id="Layer_1" xmlns="http://www.w3.org/2000/svg" xmlns:xlink="http://www.w3.org/1999/xlink" x="0px" y="0px"
	 viewBox="0 0 24 24" style="enable-background:new 0 0 24 24;" xml:space="preserve">
<style type="text/css">
	.st0{fill:none;}
	.st1{fill:#EA6F00;}
</style>
<path class="st0" d="M0,0h24v24H0V0z"/>
<path class="st1" d="M6,3v18c0,1.1,0.9,2,2,2h8c1.1,0,2-0.9,2-2V3c0-1.1-0.9-2-2-2H8C6.9,1,6,1.9,6,3z M16,4v16c0,0.5-0.4,1-1,1H9
	c-0.6,0-1-0.5-1-1v-1h3c0.6,0,1-0.5,1-1s-0.4-1-1-1H8v-2h3c0.6,0,1-0.4,1-1s-0.4-1-1-1H8v-2h3c0.6,0,1-0.4,1-1s-0.4-1-1-1H8V7h3
	c0.6,0,1-0.5,1-1s-0.4-1-1-1H8V4c0-0.5,0.4-1,1-1h6C15.6,3,16,3.5,16,4z"/>
</svg>
