<?xml version="1.0" encoding="utf-8"?>
<!-- Generator: Adobe Illustrator 24.2.1, SVG Export Plug-In . SVG Version: 6.00 Build 0)  -->
<svg version="1.1" id="Layer_1" xmlns="http://www.w3.org/2000/svg" xmlns:xlink="http://www.w3.org/1999/xlink" x="0px" y="0px"
	 viewBox="0 0 24 24" style="enable-background:new 0 0 24 24;" xml:space="preserve">
<style type="text/css">
	.st0{fill:none;}
	.st1{fill:#EA6F00;}
</style>
<path class="st0" d="M0,0h24v24H0V0z"/>
<path class="st1" d="M4,13h6c0.6,0,1-0.4,1-1V4c0-0.5-0.4-1-1-1H4C3.5,3,3,3.5,3,4v8C3,12.6,3.5,13,4,13z M4,21h6c0.6,0,1-0.5,1-1
	v-4c0-0.6-0.4-1-1-1H4c-0.5,0-1,0.4-1,1v4C3,20.5,3.5,21,4,21z M14,21h6c0.5,0,1-0.5,1-1v-8c0-0.6-0.5-1-1-1h-6c-0.6,0-1,0.4-1,1v8
	C13,20.5,13.4,21,14,21z M13,4v4c0,0.6,0.4,1,1,1h6c0.5,0,1-0.4,1-1V4c0-0.5-0.5-1-1-1h-6C13.4,3,13,3.5,13,4z"/>
</svg>
