<?xml version="1.0" encoding="utf-8"?>
<!-- Generator: Adobe Illustrator 23.1.1, SVG Export Plug-In . SVG Version: 6.00 Build 0)  -->
<svg version="1.1" id="Layer_1" xmlns="http://www.w3.org/2000/svg" xmlns:xlink="http://www.w3.org/1999/xlink" x="0px" y="0px"
	 viewBox="0 0 24 24" style="enable-background:new 0 0 24 24;" xml:space="preserve">
<style type="text/css">
	.st0{fill:none;}
	.st1{fill:#F29A0D;}
</style>
<path class="st0" d="M0,0h24v24H0V0z"/>
<circle class="st1" cx="15.5" cy="9.5" r="1.5"/>
<circle class="st1" cx="8.5" cy="9.5" r="1.5"/>
<path class="st1" d="M12,2C6.5,2,2,6.5,2,12s4.5,10,10,10s10-4.5,10-10S17.5,2,12,2z M12,20c-4.4,0-8-3.6-8-8s3.6-8,8-8s8,3.6,8,8
	S16.4,20,12,20z M16.4,13.9c-0.4-0.2-0.8-0.1-1,0.2c-0.7,1.2-2,1.9-3.4,1.9s-2.6-0.7-3.4-1.9c-0.2-0.4-0.7-0.5-1-0.2s-0.5,0.7-0.2,1
	c1,1.6,2.8,2.6,4.6,2.6s3.6-1,4.6-2.6C16.9,14.6,16.8,14.1,16.4,13.9z"/>
</svg>
