<?xml version="1.0" encoding="utf-8"?>
<!-- Generator: Adobe Illustrator 24.2.1, SVG Export Plug-In . SVG Version: 6.00 Build 0)  -->
<svg version="1.1" id="Layer_1" xmlns="http://www.w3.org/2000/svg" xmlns:xlink="http://www.w3.org/1999/xlink" x="0px" y="0px"
	 viewBox="0 0 24 24" style="enable-background:new 0 0 24 24;" xml:space="preserve">
<style type="text/css">
	.st0{fill:none;}
	.st1{fill:#07306D;}
</style>
<path class="st0" d="M0,0h24v24H0V0z"/>
<path class="st1" d="M2.5,19.6l1.3,0.6v-9L1.4,17C1,18.1,1.5,19.2,2.5,19.6z M22,15.9l-5-12c-0.3-0.8-1-1.2-1.8-1.2
	c-0.3,0-0.5,0-0.8,0.2l-7.4,3C6.3,6.3,5.9,7,5.9,7.8c0,0.3,0,0.5,0.2,0.8l5,12c0.3,0.8,1.1,1.2,1.8,1.2c0.3,0,0.5,0,0.8-0.1l7.4-3
	C22,18.1,22.5,17,22,15.9z M7.9,8.8c-0.6,0-1-0.4-1-1s0.4-1,1-1s1,0.4,1,1S8.4,8.8,7.9,8.8z M5.9,19.8c0,1.1,0.9,2,2,2h1.4l-3.4-8.3
	V19.8z"/>
</svg>
