<?xml version="1.0" encoding="utf-8"?>
<!-- Generator: Adobe Illustrator 24.2.1, SVG Export Plug-In . SVG Version: 6.00 Build 0)  -->
<svg version="1.1" id="Layer_1" xmlns="http://www.w3.org/2000/svg" xmlns:xlink="http://www.w3.org/1999/xlink" x="0px" y="0px"
	 viewBox="0 0 24 24" style="enable-background:new 0 0 24 24;" xml:space="preserve">
<style type="text/css">
	.st0{fill:none;}
	.st1{fill:#EA6F00;}
</style>
<path class="st0" d="M0,0h24v24H0V0z"/>
<path class="st1" d="M19,14.4c0-0.8-0.6-1.4-1.4-1.4H6.4C5.6,13,5,13.6,5,14.4s0.6,1.4,1.4,1.4h11.2C18.4,15.7,19,15.1,19,14.4z
	 M11,9.7c0-0.8-0.6-1.4-1.4-1.4H6.4C5.6,8.3,5,8.9,5,9.7s0.6,1.4,1.4,1.4h3.2C10.4,11.1,11,10.5,11,9.7z M11,18.9
	c0-0.8-0.6-1.4-1.4-1.4H6.4c-0.8,0-1.4,0.6-1.4,1.4s0.6,1.4,1.4,1.4h3.2C10.4,20.3,11,19.6,11,18.9z M6.6,3.5c0.9,0,1.6,0.7,1.6,1.6
	c0,0.9-0.7,1.6-1.6,1.6S5,6,5,5.1C5,4.2,5.7,3.5,6.6,3.5z"/>
</svg>
