<?xml version="1.0" encoding="utf-8"?>
<!-- Generator: Adobe Illustrator 23.1.1, SVG Export Plug-In . SVG Version: 6.00 Build 0)  -->
<svg version="1.1" id="Layer_1" xmlns="http://www.w3.org/2000/svg" xmlns:xlink="http://www.w3.org/1999/xlink" x="0px" y="0px"
	 viewBox="0 0 24 24" style="enable-background:new 0 0 24 24;" xml:space="preserve">
<style type="text/css">
	.st0{fill:none;}
	.st1{fill:#F29A0D;}
</style>
<path class="st0" d="M0,0h24v24H0V0z"/>
<path class="st1" d="M12,4.3c1.6,0,2.7,1.1,2.7,2.7S13.6,9.7,12,9.7S9.3,8.6,9.3,7S10.4,4.3,12,4.3 M12,15.7c3.8,0,7.7,1.9,7.7,2.7
	v1.4H4.3v-1.4C4.3,17.6,8.2,15.7,12,15.7 M12,2C9.2,2,7,4.2,7,7s2.2,5,5,5s5-2.2,5-5S14.8,2,12,2z M12,13.2c-3.4,0-10,1.6-10,5v2.6
	C2,21.4,2.4,22,3.1,22h17.6c0.6,0,1.2-0.6,1.2-1.2v-2.6C22,14.9,15.4,13.2,12,13.2z"/>
</svg>
