<?xml version="1.0" encoding="utf-8"?>
<!-- Generator: Adobe Illustrator 24.2.1, SVG Export Plug-In . SVG Version: 6.00 Build 0)  -->
<svg version="1.1" id="Layer_1" xmlns="http://www.w3.org/2000/svg" xmlns:xlink="http://www.w3.org/1999/xlink" x="0px" y="0px"
	 viewBox="0 0 24 24" style="enable-background:new 0 0 24 24;" xml:space="preserve">
<style type="text/css">
	.st0{fill:none;}
	.st1{fill:#EA6F00;}
</style>
<path class="st0" d="M0,0h24v24H0V0z"/>
<path class="st1" d="M15.5,14h-0.8l-0.3-0.3c1.2-1.4,1.8-3.3,1.5-5.3c-0.5-2.8-2.8-5-5.6-5.3c-4.2-0.5-7.8,3-7.3,7.3
	c0.3,2.8,2.6,5.1,5.3,5.6c2,0.3,3.9-0.3,5.3-1.5l0.3,0.3v0.8l4.3,4.2c0.4,0.4,1.1,0.4,1.5,0l0,0c0.4-0.4,0.4-1.1,0-1.5L15.5,14z
	 M9.5,14C7,14,5,12,5,9.5S7,5,9.5,5S14,7,14,9.5S12,14,9.5,14z M9.5,7C9.2,7,9,7.2,9,7.5V9H7.5C7.2,9,7,9.2,7,9.5S7.2,10,7.5,10H9
	v1.5C9,11.8,9.2,12,9.5,12s0.5-0.2,0.5-0.5V10h1.5c0.3,0,0.5-0.2,0.5-0.5S11.8,9,11.5,9H10V7.5C10,7.2,9.8,7,9.5,7z"/>
</svg>
