<svg id="Layer_1" data-name="Layer 1" xmlns="http://www.w3.org/2000/svg" viewBox="0 0 200 200"><defs><style>.cls-1{fill:#f6f6f6;}.cls-2{fill:#ffb985;}.cls-11,.cls-3{fill:none;stroke:#5862bc;stroke-linecap:round;stroke-linejoin:round;}.cls-4{fill:#fff;}.cls-5{opacity:0.5;}.cls-12,.cls-6{fill:#92d6c1;}.cls-7{fill:#fff2bb;}.cls-8{fill:#ffa9a9;}.cls-9{fill:#82d9e8;}.cls-10{fill:#efefef;}.cls-11,.cls-12{stroke-width:0.3px;}.cls-12{stroke:#ffb985;stroke-miterlimit:10;}.cls-13{fill:#5862bc;}</style></defs><rect class="cls-1" x="30.94" y="56.81" width="130.36" height="86.39" rx="6" transform="translate(-22.82 28.64) rotate(-15.17)"/><rect class="cls-2" x="30.17" y="77.49" width="3.57" height="3.57" rx="1.67" transform="translate(-19.63 11.13) rotate(-15.17)"/><line class="cls-3" x1="90.21" y1="63.63" x2="94.6" y2="62.44"/><line class="cls-3" x1="102.14" y1="60.4" x2="106.53" y2="59.21"/><line class="cls-3" x1="114.06" y1="57.16" x2="118.46" y2="55.97"/><line class="cls-3" x1="125.93" y1="53.95" x2="130.33" y2="52.75"/><line class="cls-3" x1="137.81" y1="50.73" x2="142.2" y2="49.53"/><rect class="cls-4" x="33.89" y="87.59" width="36.79" height="11.5" rx="4" transform="translate(-22.61 16.94) rotate(-15.17)"/><rect class="cls-4" x="72.99" y="76.99" width="36.79" height="11.5" rx="4" transform="translate(-18.47 26.8) rotate(-15.17)"/><rect class="cls-4" x="37.79" y="101.96" width="36.79" height="11.5" rx="4" transform="translate(-26.23 18.46) rotate(-15.17)"/><rect class="cls-4" x="112.2" y="66.35" width="36.79" height="11.5" rx="4" transform="translate(-14.32 36.69) rotate(-15.17)"/><rect class="cls-4" x="76.91" y="91.35" width="36.79" height="11.5" rx="4" transform="translate(-22.09 28.33) rotate(-15.17)"/><rect class="cls-4" x="116" y="80.75" width="36.79" height="11.5" rx="4" transform="translate(-17.95 38.19) rotate(-15.17)"/><rect class="cls-4" x="41.68" y="116.32" width="36.79" height="11.5" rx="4" transform="translate(-29.85 19.98) rotate(-15.17)"/><rect class="cls-4" x="80.78" y="105.72" width="36.79" height="11.5" rx="4" transform="translate(-25.72 29.84) rotate(-15.17)"/><rect class="cls-4" x="119.9" y="95.12" width="36.79" height="11.5" rx="4" transform="translate(-21.58 39.71) rotate(-15.17)"/><g class="cls-5"><rect class="cls-6" x="33.93" y="87.58" width="36.79" height="11.5" rx="4" transform="translate(-22.6 16.95) rotate(-15.17)"/><rect class="cls-7" x="73.02" y="76.98" width="36.79" height="11.5" rx="4" transform="translate(-18.46 26.81) rotate(-15.17)"/><rect class="cls-8" x="37.83" y="101.95" width="36.79" height="11.5" rx="4" transform="translate(-26.23 18.47) rotate(-15.17)"/><rect class="cls-9" x="112.24" y="66.34" width="36.79" height="11.5" rx="4" transform="translate(-14.32 36.7) rotate(-15.17)"/><rect class="cls-6" x="76.94" y="91.34" width="36.79" height="11.5" rx="4" transform="translate(-22.09 28.33) rotate(-15.17)"/><rect class="cls-7" x="116.04" y="80.74" width="36.79" height="11.5" rx="4" transform="translate(-17.95 38.2) rotate(-15.17)"/><rect class="cls-9" x="41.72" y="116.31" width="36.79" height="11.5" rx="4" transform="translate(-29.85 19.99) rotate(-15.17)"/><rect class="cls-8" x="80.81" y="105.71" width="36.79" height="11.5" rx="4" transform="translate(-25.71 29.85) rotate(-15.17)"/><rect class="cls-6" x="119.93" y="95.11" width="36.79" height="11.5" rx="4" transform="translate(-21.57 39.72) rotate(-15.17)"/></g><rect class="cls-10" x="93.53" y="93.63" width="36" height="61.45" rx="3"/><rect class="cls-4" x="96.58" y="109.43" width="29.91" height="9.3" rx="1"/><rect class="cls-4" x="96.58" y="120.51" width="29.91" height="9.3" rx="1"/><rect class="cls-4" x="96.58" y="131.59" width="29.91" height="9.3" rx="1"/><rect class="cls-4" x="96.58" y="142.67" width="29.91" height="9.3" rx="1"/><rect class="cls-2" x="96.33" y="96.25" width="3.57" height="3.57" rx="1.67"/><line class="cls-11" x1="123.16" y1="97.06" x2="126.53" y2="97.06"/><line class="cls-11" x1="123.16" y1="98.03" x2="126.53" y2="98.03"/><line class="cls-11" x1="123.16" y1="99.01" x2="126.53" y2="99.01"/><g class="cls-5"><rect class="cls-6" x="96.58" y="109.43" width="29.91" height="9.3" rx="1"/><rect class="cls-7" x="96.58" y="120.51" width="29.91" height="9.3" rx="1"/><rect class="cls-9" x="96.58" y="131.59" width="29.91" height="9.3" rx="1"/><rect class="cls-8" x="96.58" y="142.67" width="29.91" height="9.3" rx="1"/></g><ellipse class="cls-8" cx="171.89" cy="51.15" rx="3.02" ry="5.45" transform="translate(34.22 166.08) rotate(-56.43)"/><polygon class="cls-2" points="132.73 119.97 126.49 129.38 117.43 123.36 123.67 113.96 132.73 119.97"/><polygon class="cls-12" points="126.56 124.27 122.19 126.04 122.12 121.33 169.8 49.48 172.02 50.96 174.24 52.43 126.56 124.27"/><polygon class="cls-12" points="176.46 53.9 126.63 128.98 126.56 124.27 174.24 52.43 176.46 53.9"/><polygon class="cls-12" points="167.58 48.01 117.75 123.09 122.12 121.33 169.8 49.48 167.58 48.01"/><path class="cls-2" d="M116.56,135.35l9.93-6-9-6-1.65,11.47A.5.5,0,0,0,116.56,135.35Z"/><path class="cls-13" d="M116.56,135.35l3.08-1.85-3.32-2.21-.52,3.56A.5.5,0,0,0,116.56,135.35Z"/><ellipse class="cls-13" cx="117.99" cy="132.38" rx="0.26" ry="2" transform="translate(-57.55 157.49) rotate(-56.43)"/></svg>