<svg id="Layer_1" data-name="Layer 1" xmlns="http://www.w3.org/2000/svg" viewBox="0 0 200 200"><defs><style>.cls-1{fill:none;stroke:red;stroke-miterlimit:10;}.cls-2{fill:#f6f6f6;}.cls-3{fill:#fff;}.cls-4,.cls-9{opacity:0.5;}.cls-5{fill:#ffb985;}.cls-6,.cls-9{fill:#ffa9a9;}.cls-7{fill:#92d6c1;}.cls-8{fill:#82d9e8;}.cls-10{fill:#5862bc;}.cls-11{fill:#fff2bb;}</style></defs><line class="cls-1" x1="23.78" y1="-67.65" x2="-49.5" y2="6.76"/><rect class="cls-2" x="29.71" y="48.07" width="140.58" height="97.32" rx="6" transform="translate(24.08 -19.86) rotate(12.88)"/><rect class="cls-3" x="30.71" y="116.44" width="9.81" height="9.81" transform="translate(27.95 -4.89) rotate(12.88)"/><rect class="cls-3" x="54.72" y="80.37" width="9.81" height="9.81" transform="translate(20.51 -11.15) rotate(12.88)"/><rect class="cls-3" x="121.52" y="58.83" width="9.81" height="9.81" transform="translate(17.39 -26.58) rotate(12.88)"/><rect class="cls-3" x="84.1" y="67.94" width="9.81" height="9.81" transform="translate(18.48 -18.01) rotate(12.88)"/><rect class="cls-3" x="45.69" y="119.86" width="9.81" height="9.81" transform="translate(29.09 -8.14) rotate(12.88)"/><rect class="cls-3" x="60.27" y="123.2" width="9.81" height="9.81" transform="translate(30.2 -11.3) rotate(12.88)"/><rect class="cls-3" x="33.54" y="105.01" width="9.81" height="9.81" transform="translate(25.47 -5.8) rotate(12.88)"/><rect class="cls-3" x="48.52" y="108.44" width="9.81" height="9.81" transform="translate(26.61 -9.06) rotate(12.88)"/><rect class="cls-3" x="63.09" y="111.77" width="9.81" height="9.81" transform="translate(27.72 -12.22) rotate(12.88)"/><rect class="cls-3" x="36.16" y="93.54" width="9.81" height="9.81" transform="translate(22.98 -6.68) rotate(12.88)"/><rect class="cls-3" x="51.15" y="96.97" width="9.81" height="9.81" transform="translate(24.12 -9.93) rotate(12.88)"/><rect class="cls-3" x="65.72" y="100.3" width="9.81" height="9.81" transform="translate(25.23 -13.1) rotate(12.88)"/><rect class="cls-3" x="79.51" y="127.6" width="9.81" height="9.81" transform="translate(31.66 -15.48) rotate(12.88)"/><rect class="cls-3" x="103.52" y="91.53" width="9.81" height="9.81" transform="translate(24.22 -21.74) rotate(12.88)"/><rect class="cls-3" x="94.49" y="131.02" width="9.81" height="9.81" transform="translate(32.8 -18.74) rotate(12.88)"/><rect class="cls-3" x="82.34" y="116.17" width="9.81" height="9.81" transform="translate(29.18 -16.4) rotate(12.88)"/><rect class="cls-3" x="97.32" y="119.6" width="9.81" height="9.81" transform="translate(30.32 -19.65) rotate(12.88)"/><rect class="cls-3" x="111.89" y="122.93" width="9.81" height="9.81" transform="translate(31.43 -22.82) rotate(12.88)"/><rect class="cls-3" x="84.96" y="104.7" width="9.81" height="9.81" transform="translate(26.69 -17.27) rotate(12.88)"/><rect class="cls-3" x="99.94" y="108.12" width="9.81" height="9.81" transform="translate(27.83 -20.53) rotate(12.88)"/><rect class="cls-3" x="114.51" y="111.46" width="9.81" height="9.81" transform="translate(28.94 -23.69) rotate(12.88)"/><rect class="cls-3" x="128.35" y="138.77" width="9.81" height="9.81" transform="translate(35.38 -26.09) rotate(12.88)"/><rect class="cls-3" x="144.72" y="100.95" width="9.81" height="9.81" transform="translate(27.36 -30.69) rotate(12.88)"/><rect class="cls-3" x="143.33" y="142.19" width="9.81" height="9.81" transform="translate(36.52 -29.34) rotate(12.88)"/><rect class="cls-3" x="131.18" y="127.34" width="9.81" height="9.81" transform="translate(32.9 -27.01) rotate(12.88)"/><rect class="cls-3" x="146.16" y="130.77" width="9.81" height="9.81" transform="translate(34.04 -30.26) rotate(12.88)"/><rect class="cls-3" x="133.8" y="115.87" width="9.81" height="9.81" transform="translate(30.41 -27.88) rotate(12.88)"/><rect class="cls-3" x="148.78" y="119.29" width="9.81" height="9.81" transform="translate(31.55 -31.13) rotate(12.88)"/><rect class="cls-3" x="148.88" y="82.76" width="9.81" height="9.81" transform="translate(23.41 -32.07) rotate(12.88)"/><g class="cls-4"><rect class="cls-5" x="30.71" y="116.44" width="9.81" height="9.81" transform="translate(27.95 -4.89) rotate(12.88)"/><rect class="cls-6" x="54.72" y="80.37" width="9.81" height="9.81" transform="translate(20.51 -11.15) rotate(12.88)"/><rect class="cls-7" x="121.52" y="58.83" width="9.81" height="9.81" transform="translate(17.39 -26.58) rotate(12.88)"/><rect class="cls-8" x="84.1" y="67.94" width="9.81" height="9.81" transform="translate(18.48 -18.01) rotate(12.88)"/><rect class="cls-5" x="45.69" y="119.86" width="9.81" height="9.81" transform="translate(29.09 -8.14) rotate(12.88)"/><rect class="cls-5" x="60.27" y="123.2" width="9.81" height="9.81" transform="translate(30.2 -11.3) rotate(12.88)"/><rect class="cls-5" x="33.54" y="105.01" width="9.81" height="9.81" transform="translate(25.47 -5.8) rotate(12.88)"/><rect class="cls-5" x="48.52" y="108.44" width="9.81" height="9.81" transform="translate(26.61 -9.06) rotate(12.88)"/><rect class="cls-5" x="63.09" y="111.77" width="9.81" height="9.81" transform="translate(27.72 -12.22) rotate(12.88)"/><rect class="cls-5" x="36.16" y="93.54" width="9.81" height="9.81" transform="translate(22.98 -6.68) rotate(12.88)"/><rect class="cls-5" x="51.15" y="96.97" width="9.81" height="9.81" transform="translate(24.12 -9.93) rotate(12.88)"/><rect class="cls-5" x="65.72" y="100.3" width="9.81" height="9.81" transform="translate(25.23 -13.1) rotate(12.88)"/><rect class="cls-5" x="79.51" y="127.6" width="9.81" height="9.81" transform="translate(31.66 -15.48) rotate(12.88)"/><rect class="cls-6" x="103.52" y="91.53" width="9.81" height="9.81" transform="translate(24.22 -21.74) rotate(12.88)"/><rect class="cls-5" x="94.49" y="131.02" width="9.81" height="9.81" transform="translate(32.8 -18.74) rotate(12.88)"/><rect class="cls-5" x="82.34" y="116.17" width="9.81" height="9.81" transform="translate(29.18 -16.4) rotate(12.88)"/><rect class="cls-5" x="97.32" y="119.6" width="9.81" height="9.81" transform="translate(30.32 -19.65) rotate(12.88)"/><rect class="cls-5" x="111.89" y="122.93" width="9.81" height="9.81" transform="translate(31.43 -22.82) rotate(12.88)"/><rect class="cls-5" x="84.96" y="104.7" width="9.81" height="9.81" transform="translate(26.69 -17.27) rotate(12.88)"/><rect class="cls-5" x="99.94" y="108.12" width="9.81" height="9.81" transform="translate(27.83 -20.53) rotate(12.88)"/><rect class="cls-5" x="114.51" y="111.46" width="9.81" height="9.81" transform="translate(28.94 -23.69) rotate(12.88)"/><rect class="cls-5" x="128.35" y="138.77" width="9.81" height="9.81" transform="translate(35.38 -26.09) rotate(12.88)"/><rect class="cls-6" x="144.72" y="100.95" width="9.81" height="9.81" transform="translate(27.36 -30.69) rotate(12.88)"/><rect class="cls-5" x="143.33" y="142.19" width="9.81" height="9.81" transform="translate(36.52 -29.34) rotate(12.88)"/><rect class="cls-5" x="131.18" y="127.34" width="9.81" height="9.81" transform="translate(32.9 -27.01) rotate(12.88)"/><rect class="cls-5" x="146.16" y="130.77" width="9.81" height="9.81" transform="translate(34.04 -30.26) rotate(12.88)"/><rect class="cls-5" x="133.8" y="115.87" width="9.81" height="9.81" transform="translate(30.41 -27.88) rotate(12.88)"/><rect class="cls-5" x="148.78" y="119.29" width="9.81" height="9.81" transform="translate(31.55 -31.13) rotate(12.88)"/><rect class="cls-8" x="148.88" y="82.76" width="9.81" height="9.81" transform="translate(23.41 -32.07) rotate(12.88)"/></g><circle class="cls-2" cx="105.06" cy="103.92" r="30.52"/><path class="cls-3" d="M82,120.61a23.45,23.45,0,0,0,14.87,15.85l4.1-16.93-17.67-4.29Z"/><path class="cls-3" d="M123.74,129.68a23.47,23.47,0,0,1-20.27,7.83l3.64-17,17.78,3.81Z"/><g class="cls-4"><path class="cls-5" d="M82,120.61a23.45,23.45,0,0,0,14.87,15.85l4.1-16.93-17.67-4.29Z"/><path class="cls-5" d="M123.74,129.68a23.47,23.47,0,0,1-20.27,7.83l3.64-17,17.78,3.81Z"/></g><rect class="cls-3" x="95.24" y="87.08" width="23.45" height="23.45" transform="translate(26.64 -22.65) rotate(13.79)"/><rect class="cls-9" x="95.24" y="87.08" width="23.45" height="23.45" transform="translate(26.64 -22.65) rotate(13.79)"/><circle class="cls-3" cx="101.23" cy="91.13" r="1.51"/><rect class="cls-3" x="103.98" y="92.3" width="12.1" height="1.98" rx="0.99" transform="translate(25.41 -23.54) rotate(13.79)"/><circle class="cls-3" cx="100.2" cy="95.33" r="1.51"/><rect class="cls-3" x="102.95" y="96.49" width="12.1" height="1.98" rx="0.99" transform="translate(26.38 -23.17) rotate(13.79)"/><circle class="cls-3" cx="99.17" cy="99.52" r="1.51"/><rect class="cls-3" x="101.92" y="100.69" width="12.1" height="1.98" rx="0.99" transform="translate(27.35 -22.8) rotate(13.79)"/><g class="cls-4"><circle class="cls-10" cx="101.23" cy="91.13" r="1.51"/><rect class="cls-10" x="103.98" y="92.3" width="12.1" height="1.98" rx="0.99" transform="translate(25.41 -23.54) rotate(13.79)"/><circle class="cls-10" cx="100.2" cy="95.33" r="1.51"/><rect class="cls-10" x="102.95" y="96.49" width="12.1" height="1.98" rx="0.99" transform="translate(26.38 -23.17) rotate(13.79)"/><circle class="cls-10" cx="99.17" cy="99.52" r="1.51"/><rect class="cls-10" x="101.92" y="100.69" width="12.1" height="1.98" rx="0.99" transform="translate(27.35 -22.8) rotate(13.79)"/></g><rect class="cls-3" x="66.27" y="128.54" width="21.02" height="9" transform="translate(225.15 172.83) rotate(135)"/><path class="cls-3" d="M129.81,80a34,34,0,1,0,0,48.08A34,34,0,0,0,129.81,80ZM86.32,123.5a27.5,27.5,0,1,1,38.89,0A27.5,27.5,0,0,1,86.32,123.5Z"/><rect class="cls-3" x="55.24" y="124.59" width="15" height="45" rx="7.5" transform="translate(122.38 -1.28) rotate(45)"/><path class="cls-3" d="M78.65,131.18a7.5,7.5,0,0,0-10.61,0l10.61,10.6A7.49,7.49,0,0,0,78.65,131.18Z"/><rect class="cls-3" x="64.66" y="135.99" width="15" height="3.34" transform="translate(118.48 -10.71) rotate(45)"/><path class="cls-3" d="M46.83,163a7.5,7.5,0,0,0,10.61,0L46.83,152.39A7.5,7.5,0,0,0,46.83,163Z"/><rect class="cls-3" x="45.81" y="154.84" width="15" height="3.34" transform="translate(-19.66 304.88) rotate(-135)"/><rect class="cls-7" x="66.27" y="128.54" width="21.02" height="9" transform="translate(225.15 172.83) rotate(135)"/><path class="cls-7" d="M129.81,80a34,34,0,1,0,0,48.08A34,34,0,0,0,129.81,80ZM86.32,123.5a27.5,27.5,0,1,1,38.89,0A27.5,27.5,0,0,1,86.32,123.5Z"/><rect class="cls-7" x="55.24" y="124.59" width="15" height="45" rx="7.5" transform="translate(122.38 -1.28) rotate(45)"/><path class="cls-5" d="M78.65,131.18a7.5,7.5,0,0,0-10.61,0l10.61,10.6A7.49,7.49,0,0,0,78.65,131.18Z"/><rect class="cls-11" x="64.66" y="135.99" width="15" height="3.34" transform="translate(118.48 -10.71) rotate(45)"/><path class="cls-5" d="M46.83,163a7.5,7.5,0,0,0,10.61,0L46.83,152.39A7.5,7.5,0,0,0,46.83,163Z"/><rect class="cls-11" x="45.81" y="154.84" width="15" height="3.34" transform="translate(-19.66 304.88) rotate(-135)"/></svg>