<svg id="Layer_1" data-name="Layer 1" xmlns="http://www.w3.org/2000/svg" viewBox="0 0 200 200"><defs><style>.cls-1{fill:#92d6c1;}.cls-2{fill:#ffb985;}.cls-3{fill:#ffa9a9;}.cls-4{fill:#fff;}.cls-5{opacity:0.5;}.cls-6{fill:#fff2bb;}.cls-7{fill:#5862bc;}.cls-8{fill:#82d9e8;}</style></defs><rect class="cls-1" x="88.61" y="88.75" width="22.5" height="22.5" rx="6"/><rect class="cls-1" x="122.36" y="122.5" width="22.5" height="22.5" rx="6"/><rect class="cls-1" x="54.86" y="122.5" width="22.5" height="22.5" rx="6"/><rect class="cls-2" x="88.61" y="122.5" width="22.5" height="22.5" rx="6"/><rect class="cls-3" x="54.86" y="88.75" width="22.5" height="22.5" rx="6"/><rect class="cls-2" x="54.86" y="55" width="22.5" height="22.5" rx="6"/><circle class="cls-4" cx="133.61" cy="100" r="11.25"/><circle class="cls-4" cx="99.86" cy="66.25" r="11.25"/><path class="cls-4" d="M131.88,57.2l-9.53,16.5a2,2,0,0,0,1.73,3h19.06a2,2,0,0,0,1.73-3l-9.53-16.5A2,2,0,0,0,131.88,57.2Z"/><g class="cls-5"><circle class="cls-6" cx="133.61" cy="100" r="11.25"/><circle class="cls-7" cx="99.86" cy="66.25" r="11.25"/><path class="cls-8" d="M131.88,57.2l-9.53,16.5a2,2,0,0,0,1.73,3h19.06a2,2,0,0,0,1.73-3l-9.53-16.5A2,2,0,0,0,131.88,57.2Z"/></g></svg>