<svg id="Layer_1" data-name="Layer 1" xmlns="http://www.w3.org/2000/svg" viewBox="0 0 500 500"><defs><style>.cls-1{opacity:0.9;}.cls-2{fill:#262626;}</style></defs><title>icons</title><g class="cls-1"><path class="cls-2" d="M239.77,75.75h20.42a18.38,18.38,0,0,0,2.63.56,165.85,165.85,0,0,1,76,24C384,127.94,411.74,167.82,421.49,220c1.22,6.53,1.83,13.17,2.71,19.76v20.42c-.21,1.2-.45,2.4-.62,3.61-1.09,7.5-1.71,15.11-3.32,22.5-9.1,41.83-30.58,76.12-64.66,101.94-42.4,32.11-90.14,42.77-142.2,31.91-41.67-8.69-75.55-30.53-101.46-64.22-28-36.37-39.63-77.8-35.25-123.38,3.55-36.94,17.89-69.56,42.5-97.4,27-30.52,60.6-49.53,100.77-56.68C226.52,77.29,233.17,76.64,239.77,75.75Zm70.56,307.19c-6-36.25-16.22-71.1-29.37-105.44-49.74,16.44-89.5,46.36-122.25,86.34C200.46,398.13,261,406.09,310.33,382.94ZM138.49,344.39a304.67,304.67,0,0,1,59.37-55.73,266.19,266.19,0,0,1,72.72-37c-5.05-10.75-10-21.25-15-32-49.42,16.65-100,23.7-151.76,24.3C103,281.87,114.27,315,138.49,344.39ZM107.61,216c46.18-1,90.81-7.36,134.55-21.4a673.55,673.55,0,0,0-51-78.61C147.86,136.57,120.17,169.53,107.61,216ZM364.14,158.8c-13.35,9.64-26,19.72-39.53,28.28s-28,15.52-42.15,23.22l15.81,34.28c32.58-6.37,65.08-5.62,97.77.9C394.69,212.44,383.88,183.64,364.14,158.8ZM220.78,107l49.06,77.32c26.68-11.25,51.81-26.19,73.83-46.22C308.29,107.38,258.23,97.86,220.78,107Zm87.85,163.93a589.78,589.78,0,0,1,27.49,97.14c31.71-24.29,51.13-55.21,58.18-94.24C366,267.4,337.73,266.08,308.63,270.91Z"/></g></svg>