<svg id="Layer_1" data-name="Layer 1" xmlns="http://www.w3.org/2000/svg" viewBox="0 0 500 500"><defs><style>.cls-1{opacity:0.9;}.cls-2{fill:#262626;}</style></defs><title>dribbble_logo</title><g class="cls-1"><path class="cls-2" d="M240.11,81.52h19.74a19.17,19.17,0,0,0,2.54.54,160.41,160.41,0,0,1,73.5,23.18C379.53,132,406.38,170.54,415.81,221c1.18,6.31,1.77,12.74,2.63,19.11v19.74c-.21,1.17-.44,2.33-.61,3.5-1.05,7.25-1.66,14.6-3.21,21.74-8.8,40.46-29.57,73.61-62.52,98.57C311.11,414.7,265,425,214.61,414.51c-40.29-8.41-73.05-29.52-98.1-62.09-27.06-35.17-38.31-75.23-34.08-119.3,3.43-35.72,17.3-67.25,41.09-94.17,26.09-29.51,58.59-47.89,97.44-54.81C227.3,83,233.72,82.38,240.11,81.52Zm68.23,297c-5.77-35-15.69-68.74-28.4-101.94-48.1,15.89-86.54,44.82-118.2,83.48C202.1,393.22,260.59,400.92,308.34,378.53ZM142.19,341.27a294,294,0,0,1,57.4-53.89,257.43,257.43,0,0,1,70.3-35.75c-4.88-10.4-9.65-20.55-14.51-30.89-47.78,16.09-96.67,22.91-146.73,23.49C107.88,280.81,118.76,312.88,142.19,341.27ZM112.33,217.11c44.65-1,87.79-7.12,130.09-20.7a650.72,650.72,0,0,0-49.35-76C151.24,140.33,124.47,172.2,112.33,217.11Zm248-55.29c-12.91,9.33-25.1,19.07-38.22,27.34s-27.08,15-40.75,22.46c5,10.75,10.08,21.85,15.28,33.14,31.51-6.16,62.93-5.44,94.54.87C389.89,213.68,379.45,185.84,360.36,161.82Zm-138.61-50.1,47.43,74.75c25.8-10.87,50.1-25.32,71.39-44.68C306.36,112.1,258,102.9,221.75,111.72Zm84.94,158.49a571.15,571.15,0,0,1,26.58,93.93c30.65-23.48,49.44-53.39,56.26-91.12C362.12,266.82,334.82,265.55,306.69,270.21Z"/></g></svg>