<svg id="Layer_1" data-name="Layer 1" xmlns="http://www.w3.org/2000/svg" viewBox="0 0 500 500"><defs><style>.cls-1{opacity:0.9;}.cls-2{fill:#f8f8f8;}</style></defs><g class="cls-1"><path class="cls-2" d="M240.14,83.2h19.69a18.7,18.7,0,0,0,2.53.54c26.29,1.84,50.87,9.3,73.31,22.94,43.53,26.48,70.32,64.66,79.73,114.6,1.18,6.25,1.76,12.61,2.61,18.92v19.54c-.2,1.16-.43,2.31-.6,3.46-1.05,7.18-1.65,14.46-3.2,21.53-8.77,40-29.5,72.88-62.36,97.59C311,413.06,264.91,423.26,214.7,412.87c-40.19-8.32-72.86-29.23-97.86-61.48-27-34.81-38.21-74.47-34-118.11,3.42-35.35,17.25-66.58,41-93.23,26-29.21,58.44-47.41,97.19-54.26C227.35,84.68,233.77,84.05,240.14,83.2Zm68.05,294.05c-5.75-34.69-15.65-68.06-28.33-100.92-48,15.73-86.32,44.37-117.9,82.65C202.22,391.79,260.57,399.41,308.19,377.25ZM142.46,340.36A292.15,292.15,0,0,1,199.71,287a257.56,257.56,0,0,1,70.13-35.4L255.37,221C207.7,237,158.94,243.71,109,244.29,108.23,280.51,119.09,312.25,142.46,340.36ZM112.67,217.43c44.54-.94,87.58-7,129.77-20.48a644,644,0,0,0-49.22-75.25C151.49,141.42,124.78,173,112.67,217.43ZM360.09,162.7c-12.88,9.23-25,18.88-38.13,27.07S295,204.62,281.31,212l15.24,32.81c31.43-6.1,62.77-5.38,94.3.86C389.54,214.05,379.12,186.48,360.09,162.7ZM221.82,113.09l47.31,74c25.73-10.77,50-25.07,71.22-44.24C306.22,113.48,257.94,104.37,221.82,113.09ZM306.54,270a561,561,0,0,1,26.52,93c30.58-23.25,49.32-52.85,56.12-90.21C361.84,266.65,334.61,265.4,306.54,270Z"/></g></svg>