<svg id="Layer_1" data-name="Layer 1" xmlns="http://www.w3.org/2000/svg" viewBox="0 0 500 500"><defs><style>.cls-1{opacity:0.9;}.cls-2{fill:#262626;stroke:#262626;stroke-miterlimit:10;stroke-width:6.5px;}</style></defs><title>icons</title><g class="cls-1"><path class="cls-2" d="M249.77,117.22q77.23,0,154.46,0c13.13,0,22.78,5.75,28.25,17.67a29.06,29.06,0,0,1,2.41,11.74q.21,103.55.08,207.08c0,15.55-11.73,27.7-27.67,29-1.34.1-2.7.12-4,.12q-153.84,0-307.68,0c-14.63,0-26-8.2-29.54-21.46a34,34,0,0,1-1-8.6Q65,249.79,65,146.87c0-17.06,12.54-29.62,29.69-29.63q67.73-.06,135.46,0ZM250.08,275c3.53-1.84,7.37-3.1,10.32-5.48q76-61.28,151.72-122.81c2.92-2.36,2.95-3.35.43-6.23-2.26-2.6-5.25-3.08-8.46-3.08H95.16a5.85,5.85,0,0,0-2.46.15A23.23,23.23,0,0,0,87,140.94c-1.89,1.77-2,3.57.53,5.59q77,62.21,153.93,124.52C243.71,272.84,246.82,273.52,250.08,275ZM97.62,362.45H402.36L293.09,269.33c-6.24,5.27-12.36,10.39-18.44,15.56a37.77,37.77,0,0,1-49.36,0c-6.07-5.16-12.19-10.29-18.39-15.52ZM85.52,346l105.16-89.95-105.16-85Zm329-174.92-105.17,85L414.48,346Z"/></g></svg>