<svg id="Layer_1" data-name="Layer 1" xmlns="http://www.w3.org/2000/svg" viewBox="0 0 500 500"><defs><style>.cls-1{opacity:0.9;}.cls-2{fill:#262626;}</style></defs><title>icons</title><g class="cls-1"><path class="cls-2" d="M264.63,228.82c2.42-3.28,4.44-6.19,6.65-9a53.52,53.52,0,0,1,15.87-13A65,65,0,0,1,318,198.6c11.22-.27,22.18.84,32.8,4.62a50.72,50.72,0,0,1,27.41,22.6c5.14,8.67,7.9,18.17,9.44,28a127.85,127.85,0,0,1,1.91,18.38c.32,29.07.36,58.15.47,87.23,0,9.2,0,18.41,0,27.62v2.55H334.46c-3.07,0-3,.53-3-3q0-48.33,0-96.67c0-8.56-.82-17.06-4.26-25-3.95-9.12-11.05-13.95-20.89-15a42.89,42.89,0,0,0-17,1.43c-9.51,2.77-15.39,9.3-18.65,18.43a57.45,57.45,0,0,0-3.42,19.06q-.26,48.89-.37,97.78c0,3.41.34,3-2.92,3-17.59,0-35.17,0-52.75,0-1.85,0-2.53-.35-2.53-2.39q.07-90.92,0-181.83c0-2.42.08-2.51,2.46-2.51H262c2.52,0,2.55,0,2.56,2.59q0,10.45,0,20.91C264.52,227.09,264.58,227.76,264.63,228.82Z"/><path class="cls-2" d="M114.61,389.62V205.5c0-2.57,0-2.58,2.64-2.58H170c2.77,0,2.78,0,2.78,2.78V387c0,2.66,0,2.66-2.57,2.66h-55.6Z"/><path class="cls-2" d="M110,144c-.23-18.25,15.38-33.89,34.05-33.62a33.81,33.81,0,0,1,33.6,33.79C177.6,163.3,162.9,178,143.59,178A33.41,33.41,0,0,1,110,144Z"/></g></svg>