<svg id="Layer_1" data-name="Layer 1" xmlns="http://www.w3.org/2000/svg" viewBox="0 0 500 500"><defs><style>.cls-1{opacity:0.9;}.cls-2{fill:#f8f8f8;}</style></defs><g class="cls-1"><path class="cls-2" d="M266.39,226c2.72-3.72,5-7,7.46-10.17A59.88,59.88,0,0,1,291.64,201a72.13,72.13,0,0,1,34.52-9.35c12.57-.3,24.85,1,36.76,5.25a57,57,0,0,1,30.72,25.65c5.76,9.83,8.85,20.61,10.58,31.79a148,148,0,0,1,2.14,20.85c.36,33,.4,66,.53,99,0,10.45,0,20.89,0,31.34v2.89H344.67c-3.45,0-3.4.6-3.4-3.36q0-54.84,0-109.69c0-9.72-.91-19.36-4.78-28.4C332,256.62,324.07,251.13,313,249.88a47.56,47.56,0,0,0-19,1.63c-10.67,3.14-17.25,10.55-20.91,20.91a66,66,0,0,0-3.83,21.63q-.3,55.47-.42,111c0,3.88.38,3.41-3.27,3.42-19.71,0-39.42,0-59.12.05-2.08,0-2.84-.4-2.84-2.72q.09-103.15,0-206.32c0-2.75.1-2.85,2.77-2.85q28.49,0,57,0c2.83,0,2.87,0,2.87,2.94q0,11.86,0,23.72C266.28,224,266.34,224.76,266.39,226Z"/><path class="cls-2" d="M98.25,408.42V199.51c0-2.92,0-2.93,3-2.93q29.55,0,59.11,0c3.11,0,3.12,0,3.12,3.15V405.4c0,3,0,3-2.88,3H98.25Z"/><path class="cls-2" d="M93.09,129.69c-.26-20.72,17.24-38.47,38.17-38.15a38.12,38.12,0,0,1,37.65,38.34c-.06,21.74-16.53,38.43-38.17,38.46C109.27,168.37,92.86,150.84,93.09,129.69Z"/></g></svg>