<svg id="Layer_1" data-name="Layer 1" xmlns="http://www.w3.org/2000/svg" viewBox="0 0 500 500"><defs><style>.cls-1{fill:#f8f8f8;fill-rule:evenodd;opacity:0.9;}</style></defs><path class="cls-1" d="M120.14,170a13.2,13.2,0,0,0-4.3-11.13l-31.78-38.3v-5.72h98.71l76.3,167.33,67.07-167.33h94.1v5.72l-27.18,26.06a8,8,0,0,0-3,7.63V345.75a8,8,0,0,0,3,7.62l26.54,26.06v5.72H286.08v-5.72l27.5-26.7c2.7-2.69,2.7-3.49,2.7-7.62V190.34L239.83,384.52H229.5l-89-194.18V320.48a18,18,0,0,0,4.92,14.93l35.77,43.38v5.73H79.76v-5.73l35.77-43.38a17.31,17.31,0,0,0,4.61-14.93Z"/></svg>