<svg id="Layer_1" data-name="Layer 1" xmlns="http://www.w3.org/2000/svg" viewBox="0 0 500 500"><defs><style>.cls-1{fill:#262626;fill-rule:evenodd;opacity:0.9;}</style></defs><title>medium_logo</title><path class="cls-1" d="M120.22,170a13.17,13.17,0,0,0-4.3-11.11L84.16,120.65v-5.72h98.65l76.25,167.23,67-167.23h94.05v5.72l-27.17,26a8,8,0,0,0-3,7.63V345.69a8,8,0,0,0,3,7.62l26.53,26v5.72H286.05v-5.72l27.5-26.68c2.69-2.69,2.69-3.49,2.69-7.61V190.37L239.83,384.44H229.51l-89-194.07V320.44a17.92,17.92,0,0,0,4.92,14.92l35.74,43.35v5.73H79.86v-5.73l35.75-43.35a17.29,17.29,0,0,0,4.61-14.92Z"/></svg>