<svg id="Layer_1" data-name="Layer 1" xmlns="http://www.w3.org/2000/svg" viewBox="0 0 836.62 768.85"><defs><style>.cls-1,.cls-23{fill:#f6f6f6;}.cls-2{fill:#ffb985;}.cls-15,.cls-18,.cls-19,.cls-21,.cls-22,.cls-26,.cls-3,.cls-30{fill:none;}.cls-21,.cls-22,.cls-23,.cls-3,.cls-30{stroke:#5862bc;}.cls-15,.cls-17,.cls-18,.cls-19,.cls-20,.cls-21,.cls-3,.cls-30{stroke-linecap:round;}.cls-18,.cls-19,.cls-21,.cls-3,.cls-30{stroke-linejoin:round;}.cls-4{fill:#fff;}.cls-5{opacity:0.5;}.cls-28,.cls-6{fill:#92d6c1;}.cls-7{fill:#fff2bb;}.cls-8{fill:#ffa9a9;}.cls-9{fill:#82d9e8;}.cls-10{opacity:0.4;}.cls-11{fill:#5862bc;}.cls-12{opacity:0.6;}.cls-13{fill:#2a2b2a;}.cls-14{fill:#ffedd0;}.cls-15,.cls-16,.cls-17,.cls-20{stroke:#231f20;}.cls-15,.cls-16,.cls-17,.cls-20,.cls-22,.cls-23,.cls-26,.cls-28{stroke-miterlimit:10;}.cls-15{stroke-width:5px;}.cls-16,.cls-17{fill:#231f20;}.cls-17,.cls-19,.cls-20{stroke-width:3px;}.cls-18{stroke:#2d1e20;stroke-width:1.7px;}.cls-19{stroke:#eaa2a2;}.cls-20{fill:#2d1e20;}.cls-21,.cls-22,.cls-23{stroke-width:0.5px;}.cls-24{fill:#76caef;}.cls-25{fill:#f0746d;}.cls-26{stroke:#f8f3b6;stroke-width:0.75px;}.cls-27{fill:#f5f5f5;}.cls-28{stroke:#ffb985;}.cls-28,.cls-30{stroke-width:0.3px;}.cls-29{fill:#f9f9f9;}</style></defs><rect class="cls-1" x="698.03" y="277.05" width="130.36" height="86.39" rx="6" transform="translate(-57.21 210.9) rotate(-15.17)"/><rect class="cls-2" x="697.25" y="297.73" width="3.57" height="3.57" rx="1.67" transform="translate(-54.02 193.39) rotate(-15.17)"/><line class="cls-3" x1="757.29" y1="283.88" x2="761.69" y2="282.69"/><line class="cls-3" x1="769.22" y1="280.64" x2="773.61" y2="279.45"/><line class="cls-3" x1="781.14" y1="277.41" x2="785.54" y2="276.22"/><line class="cls-3" x1="793.01" y1="274.19" x2="797.41" y2="273"/><line class="cls-3" x1="804.89" y1="270.97" x2="809.28" y2="269.78"/><rect class="cls-4" x="700.97" y="307.83" width="36.79" height="11.5" rx="4" transform="translate(-57 199.19) rotate(-15.17)"/><rect class="cls-4" x="740.07" y="297.23" width="36.79" height="11.5" rx="4" transform="translate(-52.86 209.06) rotate(-15.17)"/><rect class="cls-4" x="704.87" y="322.2" width="36.79" height="11.5" rx="4" transform="translate(-60.62 200.72) rotate(-15.17)"/><rect class="cls-4" x="779.28" y="286.6" width="36.79" height="11.5" rx="4" transform="translate(-48.71 218.95) rotate(-15.17)"/><rect class="cls-4" x="743.99" y="311.59" width="36.79" height="11.5" rx="4" transform="translate(-56.48 210.58) rotate(-15.17)"/><rect class="cls-4" x="783.08" y="300.99" width="36.79" height="11.5" rx="4" transform="translate(-52.34 220.44) rotate(-15.17)"/><rect class="cls-4" x="708.77" y="336.57" width="36.79" height="11.5" rx="4" transform="matrix(0.97, -0.26, 0.26, 0.97, -64.24, 202.24)"/><rect class="cls-4" x="747.86" y="325.97" width="36.79" height="11.5" rx="4" transform="translate(-60.11 212.1) rotate(-15.17)"/><rect class="cls-4" x="786.98" y="315.36" width="36.79" height="11.5" rx="4" transform="matrix(0.97, -0.26, 0.26, 0.97, -55.97, 221.96)"/><g class="cls-5"><rect class="cls-6" x="701.01" y="307.82" width="36.79" height="11.5" rx="4" transform="translate(-56.99 199.2) rotate(-15.17)"/><rect class="cls-7" x="740.1" y="297.22" width="36.79" height="11.5" rx="4" transform="matrix(0.97, -0.26, 0.26, 0.97, -52.86, 209.07)"/><rect class="cls-8" x="704.91" y="322.19" width="36.79" height="11.5" rx="4" transform="translate(-60.62 200.72) rotate(-15.17)"/><rect class="cls-9" x="779.32" y="286.59" width="36.79" height="11.5" rx="4" transform="translate(-48.71 218.96) rotate(-15.17)"/><rect class="cls-6" x="744.02" y="311.58" width="36.79" height="11.5" rx="4" transform="translate(-56.48 210.59) rotate(-15.17)"/><rect class="cls-7" x="783.12" y="300.98" width="36.79" height="11.5" rx="4" transform="translate(-52.34 220.45) rotate(-15.17)"/><rect class="cls-9" x="708.8" y="336.56" width="36.79" height="11.5" rx="4" transform="translate(-64.24 202.24) rotate(-15.17)"/><rect class="cls-8" x="747.9" y="325.96" width="36.79" height="11.5" rx="4" transform="translate(-60.1 212.11) rotate(-15.17)"/><rect class="cls-6" x="787.01" y="315.35" width="36.79" height="11.5" rx="4" transform="translate(-55.96 221.97) rotate(-15.17)"/></g><circle class="cls-4" cx="60.23" cy="313.25" r="59.38"/><g class="cls-10"><path class="cls-6" d="M60.21,313.16,8.86,283.52c10.9-18.89,29.54-29.65,51.35-29.65Z"/><path class="cls-11" d="M60.21,313.16,8.86,342.81C-2,323.92-2,302.41,8.86,283.52Z"/><path class="cls-11" d="M60.21,313.16,30.56,364.52a56.72,56.72,0,0,1-21.7-21.71Z"/><path class="cls-9" d="M60.21,313.16l29.65,51.36c-18.89,10.9-40.41,10.9-59.3,0Z"/><path class="cls-7" d="M60.21,313.16l51.35-29.64a59.3,59.3,0,0,1-21.7,81h0Z"/><path class="cls-2" d="M60.21,313.16V253.87c21.81,0,40.45,10.76,51.35,29.65Z"/></g><g class="cls-12"><path class="cls-6" d="M60.13,313.11,26.6,293.75a37.76,37.76,0,0,1,33.53-19.36Z"/><path class="cls-11" d="M60.13,313.11,40.77,346.64A38.72,38.72,0,0,1,26.6,293.75h0Z"/><path class="cls-9" d="M60.13,313.11l19.36,33.53a37.76,37.76,0,0,1-38.72,0Z"/><path class="cls-7" d="M60.13,313.11l33.53-19.36a38.72,38.72,0,0,1-14.17,52.89h0Z"/><path class="cls-2" d="M60.13,313.11V274.39a37.76,37.76,0,0,1,33.53,19.36Z"/></g><path class="cls-6" d="M60.11,313.17,41.73,302.56A20.71,20.71,0,0,1,60.11,292Z"/><path class="cls-11" d="M60.11,313.17,49.5,331.54a21.22,21.22,0,0,1-7.77-29h0Z"/><path class="cls-9" d="M60.11,313.17l10.61,18.37a20.71,20.71,0,0,1-21.22,0Z"/><path class="cls-7" d="M60.11,313.17l18.38-10.61a21.21,21.21,0,0,1-7.77,29h0Z"/><path class="cls-2" d="M60.11,313.17V292a20.7,20.7,0,0,1,18.38,10.61Z"/><rect class="cls-1" x="529.16" y="52.35" width="129.48" height="97.11" rx="6" transform="translate(131.4 486.9) rotate(-49.49)"/><path class="cls-13" d="M531.69,422.47c0,117.65-25.58,186.56-49.66,217.2-10.78,13.72-55.66,33.43-53.13,14.2,7.64-58,5.44-54.61,7.2-106.13,1.5-44.21-2.62-87.45-7.28-125.27-13.91-113,12.94-158.57,41.35-158.57S531.65,304.81,531.69,422.47Z"/><path class="cls-13" d="M293.58,409.73c-.07,125.55,45.58,194.65,85.68,227.35,17.95,14.63,79.08,37.06,74.86,16.54-12.72-61.9-14-54.73-16.9-109.7-2.51-47.18,20-93.82,27.72-134.19,23.18-120.56-21.55-169.21-68.87-169.21S293.65,284.17,293.58,409.73Z"/><path class="cls-6" d="M458.54,768.44h-85c-19.39,0-54.67-14-56.8-37.9a18.66,18.66,0,0,1,.08-3.81l20.51-181.8c0-24.51,15.27-44.52,34.46-45.67l6.45-.63,32.55-4a41.88,41.88,0,0,1,10.07,0l32.88,4,6.67.65c19.14,1.22,34.35,21.2,34.35,45.66l20.51,181.88a18.57,18.57,0,0,1,.07,3.8C513.21,754.48,477.93,768.44,458.54,768.44Z"/><path class="cls-14" d="M509.13,364.24c0,69.47-32.24,107.21-86.65,131-2,.86-4.25.3-6.4.3-3.87,0-7.86.44-11.43-1C361.57,477.45,323,431.29,323,364.24,323,291.73,368,246.6,419.35,246.6S509.13,291.73,509.13,364.24Z"/><circle class="cls-14" cx="499.49" cy="417.23" r="21.25"/><path class="cls-13" d="M487.05,308.62c-14.55,7.18-8.95,7.77-28.71,10.31-6.92.9-9.87-29-67.31,14.35-3.18,2.4-37,25.8-47.57,43.15-9.52,15.64-10.07,35.85-13.88,41.11-20.89,28.88-27.6-3.69-28.78-11-2.34-14.42,3.36-48.82,4.41-52.42,2.91-10,8.1-26.66,8.34-29.59,1-12.28,9.27-30.12,22.31-45.44a167.3,167.3,0,0,1,19-18.35c21.44-17.84,48.71-24.6,66.71-21.73,36.16,5.74,51.24,16.72,58.29,25.72C486.67,273.48,509.67,297.46,487.05,308.62Z"/><path class="cls-13" d="M473.94,254.91c9.63,5.28,22.41,17.59,27.23,24.13a99.83,99.83,0,0,1,19.56,56.17,141.52,141.52,0,0,1-2,21.07c-1.49,8.49.23,46.91-.59,47.84-3.79,4.31-11.95-6.74-15.55-11.94-4.68-6.76-8.78-30.79-27.8-41.58-10.74-6.08-33.12-13.81-53.23-22.67-41.42-18.23-52.8-68.71-33.46-82a41.44,41.44,0,0,1,22.44-7.54,110,110,0,0,1,29.23,2.34c3.5.76,7,2,10.88,3.13C458.62,246.14,465.71,250.4,473.94,254.91Z"/><circle class="cls-14" cx="340.05" cy="415.51" r="16.53"/><path class="cls-15" d="M441.15,374.11a88.42,88.42,0,0,1,41.75,4.39"/><path class="cls-15" d="M391,374.28a88.42,88.42,0,0,0-41.75,4.39"/><circle class="cls-16" cx="375.18" cy="402.37" r="11.15"/><line class="cls-17" x1="365.75" y1="398.24" x2="359.57" y2="394.27"/><line class="cls-17" x1="369.59" y1="394.55" x2="364.65" y2="389.12"/><line class="cls-17" x1="374.41" y1="393" x2="371.05" y2="386.47"/><circle class="cls-4" cx="370.27" cy="398.63" r="2.8"/><path class="cls-18" d="M415.83,411.83a48.84,48.84,0,0,1-2.31,6.93,25.6,25.6,0,0,1-1.15,2.43c-.95,1.73-1.37,2.16-1.62,2.78a3.33,3.33,0,0,0,.24,2.77,14.09,14.09,0,0,0,3,1.73,16.57,16.57,0,0,0,3.38,1"/><path class="cls-19" d="M402.23,448c.54.84,5.55,8.31,14.22,8.24s13.42-7.37,14-8.24"/><line class="cls-17" x1="463.39" y1="400.08" x2="462.38" y2="407.35"/><line class="cls-20" x1="468.7" y1="399.57" x2="469.6" y2="406.86"/><line class="cls-20" x1="473.02" y1="396.92" x2="475.77" y2="403.73"/><path class="cls-15" d="M472.45,397.76a31.77,31.77,0,0,1-19.94,1.33"/><path class="cls-13" d="M498.42,373.24c.73,10.68,1.35,28.2-1.68,46.55-1.09,6.61-11,30.24-18.8,41.89-7.66,11.38-4.94,11.3-1.28,20,3.56,8.46,18.77-.88,25.24-3.46,15.24-6.07,20.43-6.23,24.76-21.94,4.91-17.8,4.62-43.16,1.59-61.89-4.79-29.59-13.51-45.95-17.42-53.09-4.21-7.69-12.62-23.05-16.58-17.7C490.82,328.24,496.44,343.88,498.42,373.24Z"/><path class="cls-13" d="M526.39,426.81A45.89,45.89,0,0,1,516,450.26c-1.13,2.64-22.61,16.64-30.34,19.58-7.92,3-13.26-.66-4.24-17.21,12-22.12,25.6-69.44,11.88-85.94C491.14,364,530.25,397.72,526.39,426.81Z"/><path class="cls-14" d="M748,555.08c2.05,3.15-5.76,11.86-13.61,17s-12.27,4.33-14.32,1.17-1-7.51,6.9-12.61C731.19,557.89,742.1,545.94,748,555.08Z"/><path class="cls-14" d="M773.86,577c0,7.52-22.58,13.63-41.29,13.63s-25.32-6.11-25.32-13.63,6.61-13.64,25.32-13.64S773.86,569.42,773.86,577Z"/><path class="cls-6" d="M519.32,472.47h0A27.54,27.54,0,0,1,546.86,500V656.85a25,25,0,0,1-25,25h-5.09a25,25,0,0,1-25-25V500A27.54,27.54,0,0,1,519.32,472.47Z" transform="translate(-256.69 601.85) rotate(-49.84)"/><rect class="cls-6" x="551.28" y="578.45" width="179.03" height="55.09" rx="25" transform="translate(-168.78 256.08) rotate(-20.03)"/><path class="cls-14" d="M85.89,553.88c-2,3.16,5.76,11.87,13.61,17s12.27,4.34,14.32,1.18,1-7.52-6.9-12.61C100.63,555.33,89,549.12,85.89,553.88Z"/><path class="cls-14" d="M58.22,576.88c0,7.53,22.58,13.63,41.29,13.63s25.31-6.1,25.31-13.63-6.6-13.63-25.31-13.63S58.22,569.35,58.22,576.88Z"/><path class="cls-6" d="M310.21,472.4h5.09a25,25,0,0,1,25,25V654.24a27.54,27.54,0,0,1-27.54,27.54h0a27.54,27.54,0,0,1-27.54-27.54V497.4a25,25,0,0,1,25-25Z" transform="translate(73.4 1188.28) rotate(-130.16)"/><rect class="cls-6" x="101.76" y="578.38" width="179.03" height="55.09" rx="25" transform="translate(163.49 1240.72) rotate(-159.97)"/><ellipse class="cls-14" cx="415.82" cy="492.02" rx="24.44" ry="24"/><path class="cls-6" d="M373.31,768.44h85c19.39,0,54.67-14,56.8-37.9a18.66,18.66,0,0,0-.08-3.81l-20.5-181.8c0-24.51-15.28-44.52-34.47-45.67l-6.45-.63-32.55-4a41.88,41.88,0,0,0-10.07,0l-32.88,4-6.67.65c-19.13,1.22-34.35,21.2-34.35,45.66L316.59,726.81a18.57,18.57,0,0,0-.07,3.8C318.64,754.48,353.92,768.44,373.31,768.44Z"/><path class="cls-21" d="M623.44,116.62A3.88,3.88,0,0,1,618,118.8a3.58,3.58,0,0,1-.33-5.64,10.8,10.8,0,0,1,3-1.4c1.55-.68,1.75-1.16,1.75-1.16S624.27,114.07,623.44,116.62Z"/><path class="cls-22" d="M618.47,118.71c.77-1.35-.43-.58-.43-.58-2.07,1.85-4.7,2.91-7.73.75a23,23,0,0,1-7.3-10.67h0a12.36,12.36,0,0,0-.54-1.33,11.43,11.43,0,0,0-1.22-2.18,35.93,35.93,0,0,0-5.1-5.76,36.73,36.73,0,0,0-4.06-3.3c-9.9-6.78-13.7-6.78-15.5-6.58a5.14,5.14,0,0,1-.72.09,8.14,8.14,0,0,0-3,1c-1,.61-1.23.8-2.09,1.31a8.3,8.3,0,0,1-3.75,1c-4.1.5-4,.52-4.67.78a8.25,8.25,0,0,0-3.85,2.29,2.71,2.71,0,0,0-.67,2.62c.37.91,1.35.83,2,.72.08,0,.17,0,.26,0a.63.63,0,0,1,.26,0c.42-.12,1.88-.62,2.87-.9a2.51,2.51,0,0,1,.49-.12,2.75,2.75,0,0,1,.55-.13h0a9.78,9.78,0,0,1,4.93.37,1.35,1.35,0,0,1,.45.16,5.19,5.19,0,0,1,1.7,1.13l0,0a5.83,5.83,0,0,1,.58.78,4.43,4.43,0,0,1-.38,4.81,7.51,7.51,0,0,1-.78.8c-2.57,1.86-4.29,2.61-4.88,3.3-1.31,1.53-.68,2.83.63,3.19.87.26,6-1,9.64-2.54.15,0,.28-.14.43-.18l0,0h.06a.05.05,0,0,1,.06,0l.46-.15a6.8,6.8,0,0,1,6.45,1.51l.25.21a6.64,6.64,0,0,1-2.09,10.88c-.09,0-.2.11-.28.14a8.18,8.18,0,0,0-.93.45,1.06,1.06,0,0,0,.23,1.45h0a4.74,4.74,0,0,0,1,.74c7.55,4.6,19.16-8.17,19.16-8.17h0l.43-.5.29-.35.13-.15a8,8,0,0,0,1.19-2.35,22.67,22.67,0,0,0,6.31,7c2.59,1.78,4.23,1.77,6.29.94C615.56,121,617.7,120.05,618.47,118.71Z"/><path class="cls-22" d="M583.15,114.42c2.29-1.67-.14-3.2-.93-3.66a1.89,1.89,0,0,0-.63-.22,2.88,2.88,0,0,0-1.36.2,2.83,2.83,0,0,0-.31.11c-1.59.59-4.85,1.81-5.14,1.89-1.37.46.74,2.31,1.69,2.59a9,9,0,0,0,4.56,0,9.92,9.92,0,0,0,1.67-.69h0A1.7,1.7,0,0,0,583.15,114.42Z"/><path class="cls-22" d="M621,117.25a1.7,1.7,0,1,1-2.7-1.71,4.8,4.8,0,0,1,1.47-.64,5.62,5.62,0,0,0,1.06-.55A5.51,5.51,0,0,1,621,117.25Z"/><path class="cls-23" d="M586.84,74.21l.64,1.47a2.44,2.44,0,0,0,3.61.91l1.36-1c1.85-1.29,4.4.35,3.66,2.42l-.52,1.51a2.23,2.23,0,0,0,2.12,2.89l1.71.1a2.18,2.18,0,0,1,1.11,4.09l-1.43.85a2.16,2.16,0,0,0-.39,3.5l1.22,1.1a2.24,2.24,0,0,1-2,3.84l-1.68-.19a2.34,2.34,0,0,0-2.7,2.46l.18,1.56a2.41,2.41,0,0,1-4.15,1.76l-1.14-1.14a2.54,2.54,0,0,0-3.78.3l-.94,1.3c-1.29,1.83-4.3,1-4.38-1.08l-.07-1.58a2.33,2.33,0,0,0-3-2l-1.55.35a2.25,2.25,0,0,1-2.55-3.48l1-1.28a2.14,2.14,0,0,0-.94-3.4l-1.54-.61a2.18,2.18,0,0,1,.46-4.21l1.66-.36a2.24,2.24,0,0,0,1.65-3.2l-.75-1.4c-1-1.91,1.21-3.95,3.24-3l1.49.73A2.42,2.42,0,0,0,581.88,76l.4-1.55A2.48,2.48,0,0,1,586.84,74.21Z"/><path class="cls-23" d="M594.71,90.35a2.16,2.16,0,0,0,1.52-.76,2.21,2.21,0,0,0-.25-3.13,2.28,2.28,0,0,0-2.42-.34,12.25,12.25,0,0,0-3.08-3.87,13,13,0,0,0-4.13-2.39,2.26,2.26,0,0,0-.7-2.29,2.22,2.22,0,0,0-3.14.25,2.15,2.15,0,0,0-.52,1.5,7.12,7.12,0,0,0-4.81,2.4c-3,3.47-1.8,9.34,2.58,13.08s10.36,4,13.33.5A7.19,7.19,0,0,0,594.71,90.35Z"/><circle class="cls-11" cx="581.44" cy="85.73" r="1.32"/><circle class="cls-11" cx="588.46" cy="91.72" r="1.32"/><path class="cls-11" d="M584,91.58c-.3.34-1.7.28-1.7.28s-.26-1.41,0-1.76.59.07,1.06.47S584.27,91.23,584,91.58Z"/><line class="cls-21" x1="582.7" y1="91.36" x2="581.63" y2="92.61"/><path class="cls-21" d="M580.85,91.12a2.14,2.14,0,0,0,.78,1.49,2.36,2.36,0,0,0,1.68.57"/><ellipse class="cls-11" cx="578.86" cy="86.72" rx="0.37" ry="0.62" transform="translate(137 470.59) rotate(-49.5)"/><ellipse class="cls-11" cx="587.75" cy="94.32" rx="0.37" ry="0.62" transform="translate(134.34 480.02) rotate(-49.5)"/><path class="cls-24" d="M59.13,512.89a3.1,3.1,0,1,1-3.5-2.65,3.19,3.19,0,0,1,3.5,2.65"/><path class="cls-24" d="M21.2,458.63a3.1,3.1,0,1,1-6.14.85,3.18,3.18,0,0,1,2.65-3.5,2.93,2.93,0,0,1,3.49,2.65"/><path class="cls-24" d="M48.43,412.32a3.1,3.1,0,1,1-3.49-2.65,3.17,3.17,0,0,1,3.49,2.65"/><path class="cls-24" d="M45.85,469.44a3.1,3.1,0,1,1-3.5-2.65,3.19,3.19,0,0,1,3.5,2.65"/><path class="cls-24" d="M77.5,444.63A3.1,3.1,0,1,1,74,442a3.19,3.19,0,0,1,3.5,2.65"/><rect class="cls-25" x="43.94" y="436" width="10.34" height="10.34" transform="translate(-297.57 163.94) rotate(-45)"/><rect class="cls-26" x="43.94" y="436" width="10.34" height="10.34" transform="translate(-297.57 163.94) rotate(-45)"/><rect class="cls-25" x="63.38" y="474.47" width="10.34" height="10.34" transform="translate(-319.08 188.95) rotate(-45)"/><rect class="cls-26" x="63.38" y="474.47" width="10.34" height="10.34" transform="translate(-319.08 188.95) rotate(-45)"/><path class="cls-27" d="M446.1,594.4l-13.75-16.62,4.76-6.79a1.4,1.4,0,0,0-.35-2l-2.68-1.88a1.41,1.41,0,0,0-2,.34l-3.8,5.43L421,564.1h0l-.86-1-2.38-2.88-.07-.06-.21-.26a1.39,1.39,0,0,0-2.13,0l-10.93,13-3.85-5.49a1.4,1.4,0,0,0-2-.34L396,569a1.41,1.41,0,0,0-.35,2l4.79,6.83-13,15.47a.41.41,0,0,0-.05.09l-.89,1.07a1.38,1.38,0,0,0,0,1.77l13.87,16.71-4.77,6.81a1.4,1.4,0,0,0,.34,2l2.69,1.89a1.41,1.41,0,0,0,2-.35l3.81-5.45,10.43,12.57.06.06.39.46a1.39,1.39,0,0,0,2.14,0l24.84-30,0,0,3.82-4.62A1.4,1.4,0,0,0,446.1,594.4ZM417,567.93a.9.9,0,0,1,1.38.08l6.83,9.42L416.39,590l-8.56-12.22Zm-25.58,22.71h0l.06,0Zm2.25,3.67-.2-.31a.91.91,0,0,1,.18-.94l10-10.75,9.08,13L403.76,608Zm45.4,3.45L415.9,622.62a.9.9,0,0,1-1.37-.08l-6.95-9.38L429,582.65l10.14,14A.89.89,0,0,1,439,597.76Z"/><path class="cls-24" d="M103.54,232.35a3.1,3.1,0,1,0,4-1.8,3.17,3.17,0,0,0-4,1.8"/><path class="cls-24" d="M171.53,151.88a3.1,3.1,0,1,0,4-1.8,2.93,2.93,0,0,0-4,1.8"/><path class="cls-24" d="M136.41,139.07a3.1,3.1,0,1,0,4-1.8,3.17,3.17,0,0,0-4,1.8"/><path class="cls-24" d="M126.23,193a3.1,3.1,0,1,0,4-1.8,3.18,3.18,0,0,0-4,1.8"/><path class="cls-24" d="M101,161.71a3.1,3.1,0,1,0,4-1.8,3.18,3.18,0,0,0-4,1.8"/><rect class="cls-25" x="134.14" y="160.73" width="10.34" height="10.34" transform="translate(-76.5 147.09) rotate(-45)"/><rect class="cls-26" x="134.14" y="160.73" width="10.34" height="10.34" transform="translate(-76.5 147.09) rotate(-45)"/><rect class="cls-25" x="96.65" y="192.66" width="10.34" height="10.34" transform="translate(-110.07 129.94) rotate(-45)"/><rect class="cls-26" x="96.65" y="192.66" width="10.34" height="10.34" transform="translate(-110.07 129.94) rotate(-45)"/><rect class="cls-1" x="171.46" y="26.37" width="130" height="90" rx="6" transform="translate(-8.99 43.74) rotate(-10.37)"/><rect class="cls-2" x="186.21" y="111.26" width="9.07" height="9.07" transform="translate(-17.73 36.24) rotate(-10.37)"/><rect class="cls-8" x="193.44" y="71.85" width="9.07" height="9.07" transform="translate(-10.52 36.9) rotate(-10.37)"/><rect class="cls-6" x="242.32" y="29.16" width="9.07" height="9.07" transform="translate(-2.03 45) rotate(-10.37)"/><rect class="cls-9" x="213.86" y="50.56" width="9.07" height="9.07" transform="translate(-6.35 40.23) rotate(-10.37)"/><rect class="cls-2" x="200.18" y="108.7" width="9.07" height="9.07" transform="translate(-17.04 38.71) rotate(-10.37)"/><rect class="cls-2" x="213.78" y="106.21" width="9.07" height="9.07" transform="translate(-16.37 41.12) rotate(-10.37)"/><rect class="cls-2" x="184.44" y="100.52" width="9.07" height="9.07" transform="matrix(0.98, -0.18, 0.18, 0.98, -15.83, 35.74)"/><rect class="cls-2" x="198.42" y="97.96" width="9.07" height="9.07" transform="translate(-15.14 38.22) rotate(-10.37)"/><rect class="cls-2" x="212.01" y="95.47" width="9.07" height="9.07" transform="translate(-14.47 40.63) rotate(-10.37)"/><rect class="cls-2" x="182.48" y="89.81" width="9.07" height="9.07" transform="translate(-13.93 35.22) rotate(-10.37)"/><rect class="cls-2" x="196.46" y="87.25" width="9.07" height="9.07" transform="translate(-13.24 37.69) rotate(-10.37)"/><rect class="cls-2" x="210.05" y="84.76" width="9.07" height="9.07" transform="translate(-12.57 40.1) rotate(-10.37)"/><rect class="cls-2" x="231.74" y="102.92" width="9.07" height="9.07" transform="translate(-15.49 44.3) rotate(-10.37)"/><rect class="cls-8" x="238.97" y="63.51" width="9.07" height="9.07" transform="translate(-8.27 44.96) rotate(-10.37)"/><rect class="cls-2" x="245.72" y="100.36" width="9.07" height="9.07" transform="translate(-14.8 46.78) rotate(-10.37)"/><rect class="cls-2" x="229.97" y="92.18" width="9.07" height="9.07" transform="translate(-13.58 43.81) rotate(-10.37)"/><rect class="cls-2" x="243.95" y="89.62" width="9.07" height="9.07" transform="translate(-12.89 46.28) rotate(-10.37)"/><rect class="cls-2" x="257.55" y="87.13" width="9.07" height="9.07" transform="translate(-12.22 48.69) rotate(-10.37)"/><rect class="cls-2" x="228.01" y="81.47" width="9.07" height="9.07" transform="translate(-11.69 43.28) rotate(-10.37)"/><rect class="cls-2" x="241.99" y="78.92" width="9.07" height="9.07" transform="translate(-11 45.76) rotate(-10.37)"/><rect class="cls-2" x="255.59" y="76.43" width="9.07" height="9.07" transform="matrix(0.98, -0.18, 0.18, 0.98, -10.33, 48.16)"/><rect class="cls-2" x="277.32" y="94.58" width="9.07" height="9.07" transform="matrix(0.98, -0.18, 0.18, 0.98, -13.24, 52.37)"/><rect class="cls-8" x="277.41" y="56.47" width="9.07" height="9.07" transform="translate(-6.38 51.77) rotate(-10.37)"/><rect class="cls-2" x="291.29" y="92.02" width="9.07" height="9.07" transform="translate(-12.55 54.85) rotate(-10.37)"/><rect class="cls-2" x="275.55" y="83.84" width="9.07" height="9.07" transform="translate(-11.33 51.88) rotate(-10.37)"/><rect class="cls-2" x="289.53" y="81.28" width="9.07" height="9.07" transform="translate(-10.65 54.35) rotate(-10.37)"/><rect class="cls-2" x="273.59" y="73.13" width="9.07" height="9.07" transform="matrix(0.98, -0.18, 0.18, 0.98, -9.44, 51.35)"/><rect class="cls-2" x="287.57" y="70.57" width="9.07" height="9.07" transform="translate(-8.75 53.83) rotate(-10.37)"/><rect class="cls-9" x="274.3" y="39.49" width="9.07" height="9.07" transform="translate(-3.37 50.93) rotate(-10.37)"/><path class="cls-24" d="M352.52,59.22a3.1,3.1,0,1,0,4.07,1.65,3.17,3.17,0,0,0-4.07-1.65"/><path class="cls-24" d="M505,58.61a3.11,3.11,0,1,0,4.06,1.65A2.93,2.93,0,0,0,505,58.61"/><path class="cls-24" d="M486,27.39A3.1,3.1,0,1,0,490,29,3.17,3.17,0,0,0,486,27.39"/><path class="cls-24" d="M423,41.3A3.1,3.1,0,1,0,427,42.94,3.16,3.16,0,0,0,423,41.3"/><path class="cls-24" d="M447.09,15.41a3.1,3.1,0,1,0,4.07,1.65,3.19,3.19,0,0,0-4.07-1.65"/><path class="cls-24" d="M362.11.43a3.17,3.17,0,0,0-1.64,4.06,3.16,3.16,0,0,0,4.06,1.65,3.18,3.18,0,0,0,1.65-4.06A3.18,3.18,0,0,0,362.11.43"/><path class="cls-24" d="M326.29,36.56a3.1,3.1,0,1,0,4.06,1.65,3.18,3.18,0,0,0-4.06-1.65"/><path class="cls-24" d="M394.47,62.3A3.1,3.1,0,1,0,398.53,64a3.2,3.2,0,0,0-4.06-1.65"/><rect class="cls-25" x="462.42" y="39.86" width="10.34" height="10.34" transform="translate(105.11 343.82) rotate(-45)"/><rect class="cls-26" x="462.42" y="39.86" width="10.34" height="10.34" transform="translate(105.11 343.82) rotate(-45)"/><rect class="cls-25" x="397.42" y="14.85" width="10.34" height="10.34" transform="translate(103.76 290.54) rotate(-45)"/><rect class="cls-26" x="397.42" y="14.85" width="10.34" height="10.34" transform="translate(103.76 290.54) rotate(-45)"/><rect class="cls-25" x="361.24" y="38.13" width="10.34" height="10.34" transform="translate(76.7 271.77) rotate(-45)"/><rect class="cls-26" x="361.24" y="38.13" width="10.34" height="10.34" transform="translate(76.7 271.77) rotate(-45)"/><ellipse class="cls-8" cx="548.72" cy="11.71" rx="5.45" ry="3.02" transform="translate(5.68 91.31) rotate(-9.56)"/><polygon class="cls-2" points="567.2 88.71 569.08 99.84 558.34 101.64 556.47 90.52 567.2 88.71"/><polygon class="cls-28" points="565.63 96.07 563.65 100.34 560.38 96.95 546.05 11.92 548.68 11.48 551.31 11.04 565.63 96.07"/><polygon class="cls-28" points="553.93 10.6 568.9 99.46 565.63 96.07 551.31 11.04 553.93 10.6"/><polygon class="cls-28" points="543.43 12.37 558.4 101.23 560.38 96.95 546.05 11.92 543.43 12.37"/><path class="cls-2" d="M565.91,111l3.16-11.16-10.7,1.81,6.65,9.5A.5.5,0,0,0,565.91,111Z"/><path class="cls-11" d="M565.91,111l1-3.46-3.93.66,2.06,3A.5.5,0,0,0,565.91,111Z"/><ellipse class="cls-11" cx="564.92" cy="107.84" rx="2" ry="0.26" transform="translate(-10.07 95.34) rotate(-9.56)"/><path class="cls-24" d="M764.9,510.8a3.1,3.1,0,1,0,3.8-2.19,3.18,3.18,0,0,0-3.8,2.19"/><path class="cls-24" d="M809.38,461.77a3.1,3.1,0,1,0,3.81-2.19,2.94,2.94,0,0,0-3.81,2.19"/><path class="cls-24" d="M788.23,412.38a3.1,3.1,0,1,0,3.8-2.18,3.19,3.19,0,0,0-3.8,2.18"/><path class="cls-24" d="M783.57,469.37a3.1,3.1,0,1,0,3.8-2.19,3.18,3.18,0,0,0-3.8,2.19"/><path class="cls-24" d="M755.31,440.76a3.1,3.1,0,1,0,3.8-2.18,3.18,3.18,0,0,0-3.8,2.18"/><rect class="cls-25" x="754.59" y="471.45" width="10.34" height="10.34" transform="translate(-114.49 676.83) rotate(-45)"/><rect class="cls-26" x="754.59" y="471.45" width="10.34" height="10.34" transform="translate(-114.49 676.83) rotate(-45)"/><rect class="cls-25" x="778.3" y="435.5" width="10.34" height="10.34" transform="translate(-82.12 683.06) rotate(-45)"/><rect class="cls-26" x="778.3" y="435.5" width="10.34" height="10.34" transform="translate(-82.12 683.06) rotate(-45)"/><path class="cls-24" d="M730.66,240.26a3.1,3.1,0,1,1-4.08-1.61,3.18,3.18,0,0,1,4.08,1.61"/><path class="cls-24" d="M658.94,163.1a3.1,3.1,0,1,1-4.08-1.6,2.93,2.93,0,0,1,4.08,1.6"/><path class="cls-24" d="M693.41,148.65a3.1,3.1,0,1,1-4.08-1.61,3.18,3.18,0,0,1,4.08,1.61"/><path class="cls-24" d="M706.14,202a3.1,3.1,0,1,1-4.08-1.61,3.18,3.18,0,0,1,4.08,1.61"/><path class="cls-24" d="M729.91,169.58a3.1,3.1,0,1,1-4.08-1.61,3.18,3.18,0,0,1,4.08,1.61"/><rect class="cls-25" x="725.74" y="200.53" width="10.34" height="10.34" transform="translate(68.63 577.08) rotate(-45)"/><rect class="cls-26" x="725.74" y="200.53" width="10.34" height="10.34" transform="translate(68.63 577.08) rotate(-45)"/><rect class="cls-25" x="686.62" y="170.41" width="10.34" height="10.34" transform="translate(78.47 540.59) rotate(-45)"/><rect class="cls-26" x="686.62" y="170.41" width="10.34" height="10.34" transform="translate(78.47 540.59) rotate(-45)"/><rect class="cls-29" x="760.62" y="313.88" width="36" height="61.45" rx="3"/><rect class="cls-4" x="763.66" y="329.68" width="29.91" height="9.3" rx="1"/><rect class="cls-4" x="763.66" y="340.76" width="29.91" height="9.3" rx="1"/><rect class="cls-4" x="763.66" y="351.83" width="29.91" height="9.3" rx="1"/><rect class="cls-4" x="763.66" y="362.91" width="29.91" height="9.3" rx="1"/><rect class="cls-2" x="763.41" y="316.49" width="3.57" height="3.57" rx="1.67"/><line class="cls-30" x1="790.25" y1="317.3" x2="793.61" y2="317.3"/><line class="cls-30" x1="790.25" y1="318.28" x2="793.61" y2="318.28"/><line class="cls-30" x1="790.25" y1="319.26" x2="793.61" y2="319.26"/><g class="cls-5"><rect class="cls-6" x="763.66" y="329.68" width="29.91" height="9.3" rx="1"/><rect class="cls-7" x="763.66" y="340.76" width="29.91" height="9.3" rx="1"/><rect class="cls-9" x="763.66" y="351.83" width="29.91" height="9.3" rx="1"/><rect class="cls-8" x="763.66" y="362.91" width="29.91" height="9.3" rx="1"/></g><path class="cls-6" d="M476.38,507.23c0,7.18-27.36,13-60.25,13s-60.54-5.83-60.54-13,27.65-13,60.54-13S476.38,500,476.38,507.23Z"/><ellipse class="cls-14" cx="415.82" cy="492.02" rx="24.44" ry="24"/></svg>