<?xml version="1.0" encoding="utf-8"?>
<!-- Generator: Adobe Illustrator 23.0.3, SVG Export Plug-In . SVG Version: 6.00 Build 0)  -->
<svg version="1.1" id="Layer_1" xmlns="http://www.w3.org/2000/svg" xmlns:xlink="http://www.w3.org/1999/xlink" x="0px" y="0px"
	 viewBox="0 0 500 500" style="enable-background:new 0 0 500 500;" xml:space="preserve">
<style type="text/css">
	.st0{fill:#D8D8D8;stroke:#D8D8D8;stroke-width:4;stroke-miterlimit:10;}
	.st1{fill:none;stroke:#D8D8D8;stroke-width:26;stroke-miterlimit:10;}
</style>
<path class="st0" d="M362.6,237.1L362.6,237.1c-4.6-5.9-12.8-6.7-18.4-1.7L250,321.3l-94.1-85.8c-5.5-5-13.7-4.2-18.4,1.7
	c-4.6,5.9-3.9,15,1.6,20l102.6,93.5c2.3,2.1,5.1,3.2,7.9,3.3h0.1c0.2,0,0.3,0,0.4,0c0.2,0,0.3,0,0.4,0h0.1c2.8-0.1,5.6-1.2,7.9-3.3
	L361,257.1C366.4,252.1,367.1,243.1,362.6,237.1"/>
<circle class="st1" cx="250" cy="250" r="231.8"/>
</svg>
